<svg width="16" height="16" viewBox="0 0 16 16" fill="none" xmlns="http://www.w3.org/2000/svg">
<path d="M15.6082 1.99171C15.3472 1.73062 15.0333 1.6001 14.6667 1.6001H1.33332C0.966668 1.6001 0.652871 1.7306 0.391611 1.99171C0.130498 2.25285 0 2.56665 0 2.93333V13.0665C0 13.4333 0.130498 13.7471 0.391611 14.0082C0.652871 14.2693 0.966668 14.3999 1.33332 14.3999H14.6667C15.0333 14.3999 15.3471 14.2693 15.6082 14.0082C15.8693 13.7471 16 13.4333 16 13.0665V2.93333C16 2.56665 15.8693 2.25285 15.6082 1.99171ZM14.9332 13.0667C14.9332 13.139 14.9069 13.2013 14.8541 13.2543C14.8013 13.3068 14.7388 13.3332 14.6667 13.3332H1.33332C1.26114 13.3332 1.19862 13.3068 1.14585 13.2541C1.09311 13.2012 1.06669 13.1388 1.06669 13.0665V7.99999H14.9332V13.0667H14.9332ZM14.9332 4.79988H1.06666V2.93322C1.06666 2.86101 1.09299 2.79863 1.14582 2.74574C1.19862 2.69312 1.26114 2.6667 1.33329 2.6667H14.6667C14.7388 2.6667 14.8013 2.693 14.8541 2.74574C14.9068 2.79863 14.9332 2.86101 14.9332 2.93322V4.79988H14.9332Z" fill="#54667A"/>
<path d="M4.2671 11.1999H2.13379V12.2666H4.2671V11.1999Z" fill="#54667A"/>
<path d="M8.53346 11.1999H5.3335V12.2666H8.53346V11.1999Z" fill="#54667A"/>
</svg>
