<svg width="16" height="16" viewBox="0 0 16 16" fill="none" xmlns="http://www.w3.org/2000/svg">
<g clip-path="url(#clip0)">
<path d="M15.7656 13.1844C15.6362 13.1844 15.5313 13.2893 15.5313 13.4187V14.9848C15.5313 15.0065 15.5136 15.0242 15.4918 15.0242H14.6012V11.6C14.6012 11.4705 14.4963 11.3656 14.3668 11.3656C14.2374 11.3656 14.1325 11.4705 14.1325 11.6V15.0243H12.4115L12.8773 14.5119C12.9493 14.4327 12.9832 14.3203 12.9681 14.2111C12.9677 14.2088 12.9674 14.2065 12.967 14.2041L12.4434 11.1105L12.5397 10.9655L12.5648 10.9833C12.6507 11.0443 12.7603 11.0666 12.8663 11.0401C12.9704 11.0141 13.0576 10.944 13.1055 10.848V10.848L13.6383 9.78017L14.8553 10.2515C14.9034 10.2724 15.5311 10.5602 15.5311 11.3092V12.3249C15.5312 12.4544 15.6361 12.5593 15.7655 12.5593C15.895 12.5593 15.9999 12.4544 15.9999 12.3249V11.3092C15.9999 10.2276 15.0723 9.83386 15.0328 9.81761C15.0313 9.81699 15.0298 9.81639 15.0283 9.81583L12.9559 9.01321V8.58633C13.2794 8.32608 13.5066 7.95099 13.5748 7.5234C13.7362 7.50315 13.8858 7.43855 14.0101 7.33171C14.1882 7.17852 14.2904 6.95562 14.2904 6.72021C14.2904 6.5323 14.2252 6.35249 14.1084 6.20968V5.57724C14.1084 4.33956 13.1015 3.33265 11.8639 3.33265C11.3082 3.33265 10.7994 3.53603 10.407 3.87172C10.402 3.69212 10.3377 3.521 10.2257 3.384V2.75159C10.2257 1.51391 9.21873 0.507004 7.98111 0.507004C6.74342 0.507004 5.73652 1.51394 5.73652 2.75159V3.4005C5.62386 3.53512 5.56083 3.69744 5.55527 3.86972C5.3049 3.65575 5.00524 3.49465 4.67127 3.40672C4.5459 3.37372 4.41787 3.4485 4.3849 3.57369C4.35193 3.69887 4.42668 3.82709 4.55187 3.86006C5.3304 4.06506 5.87415 4.77121 5.87415 5.57721V5.92774C5.86402 5.92565 5.83152 5.92006 5.83027 5.91987C5.82708 5.85371 5.81033 5.81331 5.77427 5.76143C5.71427 5.67521 5.60652 5.56781 5.25996 5.19531C5.13646 5.06265 4.93671 5.03831 4.78508 5.13743C4.19149 5.52518 3.47034 5.72281 2.80109 5.68353C2.58309 5.67074 2.44693 5.76653 2.3889 5.92349C2.38371 5.92434 2.32575 5.93602 2.32253 5.93681V5.57721C2.32253 4.80006 2.84184 4.1009 3.58537 3.87693C3.70931 3.83962 3.77952 3.70887 3.74221 3.5849C3.70487 3.46094 3.57393 3.39072 3.45015 3.42809C2.99796 3.56428 2.5915 3.84784 2.30571 4.22647C2.01 4.61815 1.85372 5.08525 1.85372 5.57724V6.22618C1.73565 6.36724 1.67181 6.53868 1.67181 6.72021C1.67181 7.12146 1.96743 7.4714 2.38862 7.52358C2.45762 7.94118 2.68418 8.34164 3.04174 8.61393V9.01333L0.971654 9.81589C0.970186 9.81645 0.968717 9.81705 0.967248 9.81764C0.927686 9.83386 0 10.2276 0 11.3092V14.9848C0 15.265 0.228 15.493 0.50828 15.493H7.72611C7.82698 15.493 7.92083 15.4631 8.00002 15.4122C8.07914 15.4631 8.17302 15.493 8.27392 15.493H15.4918C15.772 15.493 16 15.265 16 14.9848V13.4187C16 13.2893 15.8951 13.1844 15.7656 13.1844ZM2.36568 7.0393C2.22828 6.98943 2.1405 6.86234 2.1405 6.72015C2.1405 6.58224 2.2405 6.46893 2.36568 6.41515V7.0393ZM13.1993 9.61014L12.7393 10.5322C12.7392 10.5321 12.2282 10.1692 12.221 10.1641C12.4414 9.89195 12.3379 10.0198 12.7962 9.45405L13.1993 9.61014ZM11.8822 9.83758L11.276 9.08936V8.86452C11.473 8.93264 11.6853 8.96408 11.8851 8.96414C11.8851 8.96414 11.8852 8.96414 11.8852 8.96414H11.8852C12.0918 8.96411 12.3009 8.92489 12.4872 8.8548V9.0908L11.8822 9.83758ZM12.1574 10.6939L12.0711 10.8237H11.6933L11.6071 10.6939L11.8822 10.4985L12.1574 10.6939ZM7.99939 7.0119L7.39324 6.26368V6.03884C7.58949 6.10668 7.80152 6.1384 8.0023 6.13846C8.00233 6.13846 8.00239 6.13846 8.00242 6.13846H8.00245C8.20864 6.13846 8.41773 6.09937 8.60439 6.02915V6.26512L7.99939 7.0119ZM8.27455 7.8683L8.18833 7.99808H7.81049L7.72427 7.8683L7.99942 7.6729L8.27455 7.8683ZM6.15368 4.67543C6.19199 4.68587 6.23136 4.69296 6.27133 4.6979C6.34033 5.11549 6.56689 5.51596 6.92446 5.78824V6.18765L6.4463 6.37299C6.41858 6.31477 6.38393 6.25993 6.3428 6.20965V5.57724C6.3428 5.25918 6.2758 4.95343 6.15368 4.67543ZM9.24486 4.42725C9.24486 5.11328 8.68523 5.66962 8.00245 5.66962C7.23211 5.66962 6.7173 5.07259 6.7173 4.42725V3.32937C7.45739 3.359 8.22623 3.13965 8.85483 2.74841C9.06617 2.97503 9.19192 3.10669 9.24489 3.16781C9.24486 3.75134 9.24486 3.97665 9.24486 4.42725ZM9.69208 4.69775C9.73182 4.69275 9.77101 4.68562 9.80911 4.67521C9.68736 4.95146 9.61923 5.25646 9.61923 5.57724V6.22615C9.5832 6.26918 9.5522 6.31502 9.52654 6.36312L9.07317 6.18756V5.76068C9.39664 5.5004 9.62386 5.12531 9.69208 4.69775ZM7.08452 6.62874L7.65989 7.33893L7.26752 7.61762C7.2673 7.61777 7.26714 7.61793 7.26692 7.61808L7.14239 7.70655L6.6823 6.78452L7.08452 6.62874ZM8.53883 7.09074L8.91342 6.62837L9.31651 6.78446L8.85648 7.70655L8.73167 7.61793C8.73155 7.61783 8.73142 7.61771 8.7313 7.61762L8.3382 7.3384L8.53883 7.09074ZM8.65695 8.13983L8.68205 8.15765C8.76967 8.2199 8.87964 8.24046 8.98351 8.21446C9.08761 8.18843 9.17483 8.1184 9.22276 8.0224V8.02236L9.61833 7.22958C9.75423 7.39708 9.95079 7.49896 10.1532 7.52424C10.2247 7.97236 10.4669 8.3548 10.8073 8.61393V9.0133L8.81464 9.78583L8.56058 8.2849L8.65695 8.13983ZM10.9673 9.45439L11.5427 10.1646C11.2911 10.3433 11.0382 10.523 11.0252 10.5322L10.5651 9.61017L10.9673 9.45439ZM13.1276 7.25293C13.1277 7.92221 12.5841 8.4953 11.8852 8.4953C11.0886 8.4953 10.6001 7.87136 10.6001 7.25293V6.15506C11.3349 6.1844 12.1047 5.96796 12.7376 5.57409C12.9489 5.80071 13.0747 5.93237 13.1276 5.99349C13.1276 6.57699 13.1276 6.80234 13.1276 7.25293ZM13.8217 6.72018C13.8217 6.86262 13.7336 6.98946 13.5965 7.0393V6.40171C13.7382 6.45334 13.8217 6.58287 13.8217 6.72018ZM10.088 5.57721C10.088 4.59803 10.8847 3.8014 11.8638 3.8014C12.843 3.8014 13.6396 4.59806 13.6396 5.57721V5.92774C13.6289 5.92552 13.5996 5.92046 13.5957 5.91987C13.5925 5.85365 13.5757 5.81315 13.5397 5.76143C13.4781 5.67296 13.3716 5.5674 13.0254 5.19531C12.9045 5.06556 12.7052 5.03634 12.5505 5.13743C11.973 5.51468 11.2434 5.72778 10.5491 5.68268C10.3541 5.6699 10.2128 5.7654 10.1544 5.92352C10.1491 5.92437 10.0913 5.93606 10.088 5.93684V5.57721H10.088ZM10.1313 6.41518V7.03899C9.99348 6.9893 9.90611 6.86187 9.90611 6.72015C9.90607 6.58224 10.006 6.46899 10.1313 6.41518ZM9.93882 3.89453C9.93882 3.99322 9.89611 4.08656 9.82164 4.15059C9.78967 4.17809 9.75323 4.19922 9.71364 4.21362V3.57603C9.85379 3.6269 9.93882 3.75575 9.93882 3.89453ZM7.98102 0.975753C8.9602 0.975753 9.75682 1.77238 9.75682 2.75156V3.10209C9.74623 3.09991 9.71686 3.09481 9.71295 3.09422C9.70948 3.02244 9.68879 2.97831 9.64658 2.92122C9.58383 2.83628 9.46814 2.7195 9.14264 2.36963C9.01973 2.23766 8.82011 2.21219 8.66776 2.31175C8.05789 2.71019 7.31805 2.90409 6.64746 2.85606C6.48339 2.84366 6.32893 2.94278 6.27161 3.09781C6.26639 3.09865 6.20849 3.11034 6.20524 3.11112V2.75159H6.20521C6.20521 1.77238 7.00186 0.975753 7.98102 0.975753ZM6.24846 3.5895V4.21365C6.11105 4.16378 6.02327 4.03668 6.02327 3.8945C6.02327 3.75737 6.12249 3.64365 6.24846 3.5895ZM5.83083 6.40171C5.96196 6.44943 6.04618 6.56384 6.05452 6.6998C6.06502 6.85099 5.97211 6.98771 5.83083 7.03902V6.40171ZM5.80911 7.52418C6.03018 7.49652 6.23308 7.38002 6.36614 7.2008L6.77608 8.02236C6.77608 8.02236 6.77608 8.02236 6.77611 8.0224C6.82402 8.11843 6.91124 8.18843 7.01533 8.21446C7.11824 8.24018 7.22833 8.22049 7.3168 8.15765L7.34189 8.13983L7.43824 8.28486L7.18427 9.78539L5.1904 9.01318V8.58649H5.19036C5.52233 8.31883 5.74249 7.94065 5.80911 7.52418ZM4.11655 9.83758L3.5104 9.08936V8.86452C3.70665 8.93236 3.91871 8.96408 4.11949 8.96411C4.11952 8.96411 4.11959 8.96411 4.11962 8.96411C4.32918 8.96411 4.53793 8.92386 4.72155 8.8548V9.0908L4.11655 9.83758ZM4.39174 10.6939L4.30552 10.8237H3.92768L3.84146 10.6939L4.11662 10.4985L4.39174 10.6939ZM5.03058 9.45405L5.43371 9.61017L4.97365 10.5322L4.84883 10.4436C4.84871 10.4435 4.84858 10.4434 4.84846 10.4433L4.45537 10.1641L5.03058 9.45405ZM2.83446 7.25293V6.15506C3.57849 6.18477 4.34784 5.96252 4.97196 5.57409C5.1813 5.79859 5.30899 5.93231 5.36202 5.99349C5.36202 6.57702 5.36202 6.80237 5.36202 7.25293C5.36202 7.93458 4.80624 8.4953 4.11962 8.4953C3.35515 8.4953 2.83446 7.90508 2.83446 7.25293ZM3.20171 9.45439L3.77709 10.1646L3.38471 10.4433C3.38449 10.4434 3.38434 10.4436 3.38412 10.4437L3.25959 10.5322L2.79949 9.61017L3.20171 9.45439ZM1.86759 15.0243V11.6C1.86759 11.4705 1.76268 11.3656 1.63322 11.3656C1.50375 11.3656 1.39884 11.4705 1.39884 11.6V15.0243H0.50828C0.486468 15.0243 0.46878 15.0065 0.46878 14.9848V11.3092C0.46878 10.5564 1.10306 10.2695 1.14412 10.2517L2.3604 9.78017L2.89324 10.848C2.89324 10.848 2.89324 10.848 2.89328 10.848C2.94118 10.9441 3.0284 11.0141 3.13253 11.0401C3.23543 11.0658 3.34552 11.0461 3.43399 10.9833L3.45909 10.9655L3.55543 11.1105L3.03184 14.2041C3.03143 14.2064 3.03109 14.2088 3.03074 14.2111C3.01568 14.3202 3.04959 14.4326 3.12156 14.5119L3.58727 15.0243H1.86759V15.0243ZM3.50227 14.2338L4.00005 11.2925H4.23315L4.73096 14.2338L4.11662 14.9096L3.50227 14.2338ZM7.76558 14.9848C7.76558 15.0065 7.74789 15.0243 7.72611 15.0243H6.83561V11.6C6.83561 11.4705 6.73071 11.3656 6.60124 11.3656C6.47177 11.3656 6.36686 11.4705 6.36686 11.6V15.0243H4.64593L5.11171 14.5119C5.18365 14.4327 5.21755 14.3203 5.20246 14.2111C5.20212 14.2088 5.20177 14.2065 5.20136 14.2041L4.67777 11.1105L4.77412 10.9655L4.79921 10.9833C4.86193 11.0279 4.93618 11.0511 5.01152 11.0511C5.14899 11.0511 5.27702 10.9741 5.33996 10.848V10.848L5.87274 9.7802L7.08977 10.2515C7.44452 10.4059 7.76555 10.8038 7.76555 11.3092V14.9848H7.76558ZM7.99998 10.4575C7.90289 10.301 7.77364 10.1563 7.61783 10.0328L7.88286 8.46686H8.11595L8.38111 10.0336C8.22114 10.1606 8.09358 10.3067 7.99998 10.4575ZM9.63317 15.0243V11.6C9.63317 11.4705 9.52826 11.3656 9.39879 11.3656C9.26933 11.3656 9.16442 11.4705 9.16442 11.6V15.0243H8.27389C8.25211 15.0243 8.23439 15.0065 8.23439 14.9848V11.3092C8.23439 11.0305 8.32176 10.7739 8.50789 10.5583C8.63198 10.416 8.79658 10.3007 8.90976 10.2517L10.126 9.78014L10.6589 10.848C10.6589 10.848 10.6589 10.848 10.6589 10.848C10.7068 10.9441 10.794 11.0141 10.8981 11.0401C11.001 11.0658 11.1111 11.0461 11.1996 10.9833L11.2247 10.9655L11.321 11.1105L10.7974 14.2041C10.797 14.2064 10.7967 14.2088 10.7964 14.2111C10.7813 14.3202 10.8152 14.4326 10.8872 14.5119L11.3529 15.0243H9.63317V15.0243ZM11.2679 14.2338L11.7657 11.2925H11.9988L12.4966 14.2338L11.8822 14.9096L11.2679 14.2338Z" fill="#54667A"/>
</g>
<defs>
<clipPath id="clip0">
<rect width="16" height="16" fill="white"/>
</clipPath>
</defs>
</svg>
