<svg width="16" height="16" viewBox="0 0 16 16" fill="none" xmlns="http://www.w3.org/2000/svg">
<path d="M6.55134 12.0993L13.1487 8.28992C13.2523 8.23038 13.316 8.11966 13.316 8.00042C13.316 7.88117 13.2523 7.77045 13.1487 7.71075L6.55134 3.90086C6.44782 3.84116 6.32037 3.84116 6.21685 3.90086C6.11332 3.96057 6.0496 4.07112 6.0496 4.19053V5.96419H0.354513C0.169873 5.96419 0.0200195 6.11404 0.0200195 6.29868V9.70115C0.0200195 9.88579 0.169873 10.0356 0.354513 10.0356H6.04977V11.8091C6.04977 11.9289 6.11349 12.0391 6.21702 12.0988C6.26886 12.1289 6.32656 12.1436 6.38426 12.1436C6.44196 12.1436 6.49966 12.1289 6.55134 12.0993Z" fill="#54667A"/>
<path d="M13.509 0H6.69387C6.50923 0 6.35938 0.149853 6.35938 0.334494V1.33797C6.35938 1.52261 6.50923 1.67247 6.69387 1.67247H13.509C13.9492 1.67247 14.3069 2.03054 14.3069 2.4704V13.5296C14.3069 13.9696 13.9489 14.3275 13.509 14.3275H6.69387C6.50923 14.3275 6.35938 14.4774 6.35938 14.662V15.6655C6.35938 15.8501 6.50923 16 6.69387 16H13.509C14.8714 16 15.9794 14.8917 15.9794 13.5296V2.47057C15.9794 1.10834 14.8712 0 13.509 0Z" fill="#54667A"/>
</svg>
