<svg width="16" height="16" viewBox="0 0 16 16" fill="none" xmlns="http://www.w3.org/2000/svg"><path d="M2.17537 14.7304C2.17537 14.7304 2.16116 15.0881 2.51053 15.0881C2.94517 15.0881 6.54369 15.0834 6.54369 15.0834L6.54961 11.7786C6.54961 11.7786 6.49277 11.2338 7.02156 11.2338H8.69499C9.3203 11.2338 9.28181 11.7786 9.28181 11.7786L9.27471 15.0727C9.27471 15.0727 12.6867 15.0727 13.2226 15.0727C13.6661 15.0727 13.646 14.6274 13.646 14.6274V8.53473L8.08211 3.58551L2.17537 8.53473V14.7304Z" fill="#03A9F4"/><path d="M0 8.07403C0 8.07403 0.501554 8.99838 1.59526 8.07403L8.13146 2.54449L14.2597 8.03968C15.5257 8.95278 16 8.03968 16 8.03968L8.13146 0.911926L0 8.07403Z" fill="#03A9F4"/><path d="M14.111 2.53146H12.5347L12.5412 4.44294L14.111 5.77469V2.53146Z" fill="#03A9F4"/></svg>
