<svg width="16" height="16" viewBox="0 0 16 16" fill="none" xmlns="http://www.w3.org/2000/svg">
<g clip-path="url(#clip0)">
<path d="M12.2314 6.85883C12.231 6.85586 12.2308 6.85285 12.2304 6.84992C12.2283 6.8353 12.2255 6.82071 12.2215 6.8063C12.2215 6.80616 12.2214 6.80601 12.2214 6.80583C12.2177 6.79237 12.213 6.77908 12.2077 6.76594C12.2062 6.76218 12.2045 6.75856 12.2029 6.75486C12.1987 6.74538 12.194 6.73604 12.1889 6.72685C12.1867 6.72283 12.1846 6.71881 12.1822 6.71486C12.1809 6.71273 12.1799 6.71052 12.1786 6.70839C12.1732 6.69988 12.1674 6.69188 12.1614 6.68395C12.1603 6.68247 12.1594 6.68091 12.1583 6.67946C12.1492 6.66773 12.1395 6.65684 12.1292 6.64652C12.1273 6.64457 12.1252 6.64276 12.1232 6.64087C12.1143 6.6323 12.1051 6.62426 12.0954 6.61669C12.093 6.61478 12.0906 6.61286 12.088 6.61101C12.0752 6.60145 12.0619 6.59255 12.048 6.58484L6.71502 3.55344L9.78558 1.61991L14.9333 4.54594L12.7653 5.91111C12.5961 6.0176 12.5453 6.24113 12.6519 6.41029C12.7584 6.57948 12.9819 6.63027 13.1511 6.52373L15.8307 4.8364C15.9384 4.7686 16.0026 4.64918 15.9997 4.5219C15.9969 4.39463 15.9274 4.27828 15.8167 4.21537L9.95492 0.883412C9.83898 0.817457 9.6961 0.820715 9.58316 0.891774L5.82007 3.26139C5.81931 3.26186 5.81852 3.26236 5.81776 3.26283L3.93733 4.44693C3.93647 4.44748 3.9356 4.44802 3.93476 4.44856L0.169106 6.81981C0.0613786 6.88761 -0.0028019 7.00703 9.40073e-05 7.1343C0.00295372 7.26158 0.0724193 7.37792 0.183115 7.44083L6.04494 10.7728C6.10047 10.8044 6.16215 10.8201 6.2238 10.8201C6.29088 10.8201 6.35784 10.8015 6.41667 10.7644L9.09632 9.07706C9.26552 8.97056 9.3163 8.74703 9.20977 8.57787C9.10331 8.40868 8.87974 8.35786 8.71059 8.46443L6.21428 10.0363L1.06655 7.11023L4.13715 5.17667L9.62743 8.29744V12.4307C9.62743 12.5625 9.69907 12.6839 9.81447 12.7476C9.86902 12.7777 9.92926 12.7927 9.98942 12.7927C10.0565 12.7927 10.1235 12.774 10.1823 12.737L12.0651 11.5514C12.1704 11.4851 12.2343 11.3695 12.2343 11.2451V6.90122C12.2343 6.89908 12.2339 6.89705 12.2338 6.89492C12.2336 6.8829 12.2328 6.87088 12.2314 6.85883ZM10.3514 11.775V8.08687C10.3514 7.95667 10.2815 7.83652 10.1683 7.7722L4.83217 4.73906L6.01996 3.99108L11.1677 6.91714L10.7169 7.20094C10.5478 7.30744 10.497 7.53097 10.6035 7.70012C10.6723 7.80945 10.7899 7.86928 10.9102 7.86928C10.9761 7.86928 11.0428 7.85129 11.1027 7.81357L11.5102 7.55696V11.0453L10.3514 11.775Z" fill="#54667A"/>
<path d="M15.445 5.67168L12.7654 7.35903C12.5962 7.46553 12.5454 7.68906 12.6519 7.85822C12.7207 7.96754 12.8383 8.02738 12.9586 8.02738C13.0245 8.02738 13.0912 8.00939 13.1511 7.97167L15.8308 6.28432C16 6.17782 16.0507 5.95429 15.9442 5.78513C15.8377 5.61593 15.6142 5.56511 15.445 5.67168Z" fill="#54667A"/>
<path d="M8.71064 9.91234L6.21433 11.4842L0.540923 8.25939C0.367241 8.16064 0.146138 8.22131 0.0473518 8.39521C-0.0514349 8.569 0.00934298 8.79 0.18317 8.88878L6.04499 12.2207C6.10052 12.2523 6.16221 12.2681 6.22385 12.2681C6.29093 12.2681 6.3579 12.2494 6.41672 12.2124L9.09638 10.525C9.26557 10.4185 9.31636 10.195 9.20982 10.0258C9.10336 9.8566 8.8798 9.80577 8.71064 9.91234Z" fill="#54667A"/>
<path d="M15.445 7.11963L12.7654 8.80699C12.5962 8.91349 12.5454 9.13702 12.6519 9.30618C12.7207 9.4155 12.8383 9.47533 12.9586 9.47533C13.0245 9.47533 13.0912 9.45734 13.1511 9.41962L15.8308 7.73227C16 7.62577 16.0507 7.40224 15.9442 7.23308C15.8377 7.06385 15.6142 7.01306 15.445 7.11963Z" fill="#54667A"/>
<path d="M8.71064 11.3603L6.21433 12.9322L0.540923 9.70735C0.367241 9.6086 0.146138 9.66927 0.0473518 9.84317C-0.0514349 10.017 0.00934298 10.2379 0.18317 10.3367L6.04499 13.6687C6.10052 13.7003 6.16221 13.716 6.22385 13.716C6.29093 13.716 6.3579 13.6974 6.41672 13.6603L9.09638 11.973C9.26557 11.8665 9.31636 11.6429 9.20982 11.4738C9.10336 11.3045 8.8798 11.2537 8.71064 11.3603Z" fill="#54667A"/>
<path d="M15.445 8.56759L12.7654 10.2549C12.5962 10.3614 12.5454 10.585 12.6519 10.7541C12.7207 10.8635 12.8383 10.9233 12.9586 10.9233C13.0245 10.9233 13.0912 10.9053 13.1511 10.8676L15.8308 9.18023C16 9.07373 16.0507 8.8502 15.9442 8.68104C15.8377 8.51185 15.6142 8.46106 15.445 8.56759Z" fill="#54667A"/>
<path d="M8.71064 12.8082L6.21433 14.3801L0.540923 11.1553C0.367241 11.0565 0.146138 11.1172 0.0473518 11.2911C-0.0514349 11.4649 0.00934298 11.6859 0.18317 11.7847L6.04499 15.1166C6.10052 15.1483 6.16221 15.164 6.22385 15.164C6.29093 15.164 6.3579 15.1453 6.41672 15.1083L9.09638 13.4209C9.26557 13.3144 9.31636 13.0909 9.20982 12.9217C9.10336 12.7525 8.8798 12.7017 8.71064 12.8082Z" fill="#54667A"/>
</g>
<defs>
<clipPath id="clip0">
<rect width="16" height="16" fill="white"/>
</clipPath>
</defs>
</svg>
