<svg width="64" height="64" viewBox="0 0 64 64" fill="none" xmlns="http://www.w3.org/2000/svg">
<path d="M6.1392 32.8256C5.6976 32.8256 5.3392 32.4944 5.3392 32.0544V32C5.3392 29.2048 5.7696 26.4512 6.6192 23.816C6.7552 23.3952 7.2064 23.168 7.6256 23.2992C8.0464 23.4352 8.2768 23.8864 8.1424 24.3056C7.344 26.7824 6.9392 29.3712 6.9392 32C6.9392 32.44 6.5824 32.8256 6.1392 32.8256ZM39.7664 55.8336C37.2736 56.6432 34.6704 57.0576 32.0288 57.0608C31.5872 57.0608 31.2288 57.4224 31.2288 57.8608C31.2288 58.2992 31.5872 58.6608 32.0288 58.6608C34.8384 58.6576 37.6112 58.2192 40.2624 57.3568C40.6832 57.2224 40.9104 56.7696 40.7728 56.3488C40.6368 55.9296 40.184 55.6976 39.7664 55.8336ZM8.1728 39.7888C8.0368 39.368 7.5904 39.1392 7.1648 39.2768C6.7456 39.4128 6.5152 39.8656 6.6528 40.2848C7.52 42.9408 8.7984 45.4384 10.4544 47.7072C10.6112 47.9232 10.8544 48.0352 11.1008 48.0352C11.264 48.0352 11.4304 47.9872 11.5712 47.88C11.928 47.6192 12.0064 47.1184 11.7456 46.7632C10.192 44.632 8.9888 42.2848 8.1728 39.7888ZM39.6704 8.1344C42.1712 8.9376 44.5232 10.128 46.6624 11.6736C46.8048 11.776 46.968 11.8256 47.1296 11.8256C47.3776 11.8256 47.6224 11.7104 47.7776 11.4944C48.0368 11.136 47.9552 10.6352 47.6 10.3776C45.3248 8.7328 42.8224 7.4656 40.16 6.6112C39.7392 6.4784 39.2912 6.7088 39.1536 7.128C39.0192 7.5488 39.2496 8 39.6704 8.1344ZM11.04 17.648C11.288 17.648 11.5328 17.5328 11.688 17.3168C13.232 15.184 15.0912 13.3152 17.2176 11.76C17.5744 11.4992 17.6512 10.9984 17.3904 10.6416C17.1312 10.2848 16.6304 10.208 16.272 10.4688C14.0112 12.1216 12.0336 14.1104 10.392 16.3776C10.1328 16.736 10.2128 17.2352 10.5712 17.4944C10.7136 17.6 10.8784 17.648 11.04 17.648ZM23.9392 8.2208C24.0208 8.2208 24.1056 8.208 24.1888 8.1808C26.6784 7.3648 29.2816 6.9472 31.9248 6.9408C32.3648 6.9392 32.7248 6.5808 32.7232 6.1392C32.7216 5.6992 32.3616 5.3408 31.9232 5.3408H31.9216C29.1104 5.3488 26.3408 5.7936 23.6912 6.6608C23.272 6.7984 23.0432 7.2496 23.1808 7.6704C23.2896 8.0064 23.6016 8.2208 23.9392 8.2208ZM24.2816 55.8496C21.7824 55.04 19.432 53.8464 17.296 52.296C16.9392 52.0336 16.4368 52.1168 16.1792 52.4704C15.92 52.832 16 53.3312 16.3568 53.5904C18.6288 55.2368 21.1296 56.5088 23.7888 57.368C23.8704 57.3968 23.9536 57.4048 24.0352 57.4048C24.3728 57.4048 24.6864 57.1888 24.7968 56.8512C24.9328 56.4368 24.7024 55.9856 24.2816 55.8496ZM52.2816 46.7232C50.7328 48.8512 48.8688 50.7168 46.7408 52.2672C46.384 52.528 46.3072 53.0288 46.5664 53.3856C46.7248 53.6 46.9664 53.7152 47.2128 53.7152C47.376 53.7152 47.5408 53.6656 47.6832 53.5616C49.9472 51.912 51.928 49.928 53.576 47.6608C53.8384 47.3008 53.7568 46.8032 53.4032 46.544C53.04 46.2848 52.5408 46.3664 52.2816 46.7232ZM57.8608 31.1488C57.4192 31.1488 57.0608 31.5568 57.0608 32C57.0608 34.6432 56.6512 37.2496 55.84 39.7424C55.7056 40.1632 55.936 40.6128 56.3552 40.7504C56.4368 40.7792 56.52 40.7888 56.5984 40.7888C56.936 40.7888 57.2496 40.5744 57.3616 40.2336C58.224 37.584 58.6608 34.8096 58.6608 32V31.8976C58.6608 31.456 58.3024 31.1488 57.8608 31.1488ZM55.8112 24.1648C55.9216 24.5008 56.2352 24.7152 56.5728 24.7152C56.6576 24.7152 56.7392 24.7024 56.8224 24.6752C57.2416 24.5376 57.4688 24.0848 57.3312 23.6656C56.4576 21.0096 55.1712 18.5152 53.512 16.2528C53.2496 15.896 52.7472 15.8192 52.3952 16.0816C52.04 16.344 51.9616 16.8432 52.2256 17.2C53.784 19.3248 54.9904 21.6688 55.8112 24.1648ZM64 32C64 49.6432 49.6432 64 32 64C14.3552 64 0 49.6432 0 32C0 14.3552 14.3552 0 32 0C49.6432 0 64 14.3552 64 32ZM60.8 32C60.8 16.12 47.88 3.2 32 3.2C16.12 3.2 3.2 16.12 3.2 32C3.2 47.88 16.12 60.8 32 60.8C47.88 60.8 60.8 47.88 60.8 32ZM34.6976 33.3088C34.1632 33.1056 33.3472 33.0032 32.2528 33.0032H29.752V37.1856C29.7616 37.7776 29.784 38.1232 29.8208 38.224C29.8672 38.3504 29.9424 38.4432 30.0496 38.4928C30.1552 38.5408 30.4432 38.5712 30.912 38.5712H32.32C33.1392 38.5712 33.8192 38.4928 34.3552 38.3376C34.896 38.1872 35.3552 37.8704 35.7296 37.3888C36.104 36.9072 36.296 36.3328 36.296 35.6576C36.296 35.0864 36.1616 34.6016 35.896 34.2016C35.632 33.8128 35.232 33.512 34.6976 33.3088ZM55.0976 32C55.0976 44.7568 44.7568 55.0976 32 55.0976C19.2448 55.0976 8.904 44.7568 8.904 32C8.904 19.2448 19.2448 8.904 32 8.904C44.7568 8.904 55.0976 19.2448 55.0976 32ZM41.3152 36.1744C41.3152 35.3168 41.112 34.5408 40.7056 33.8432C40.2992 33.1424 39.7456 32.6032 39.0592 32.2112C38.5776 31.9328 37.888 31.6784 36.9808 31.4496C37.824 31.1632 38.5024 30.8016 39.0144 30.3616C39.528 29.9232 39.9216 29.4176 40.1952 28.8464C40.4672 28.2736 40.6032 27.6688 40.6032 27.032C40.6032 26.1552 40.3456 25.3488 39.8336 24.6144C39.3152 23.8816 38.5776 23.3168 37.6176 22.9264C37.2432 22.7744 36.7984 22.6592 36.32 22.5664V19.1568H33.048V22.336H30.9456V19.1568H27.6736V22.336H22.6832V25.008H23.4464C23.9536 25.008 24.2976 25.056 24.4784 25.1472C24.6592 25.2384 24.7856 25.3648 24.8592 25.52C24.9344 25.6768 24.9712 26.0432 24.9712 26.6144V37.3888C24.9712 37.9552 24.936 38.3152 24.8592 38.4768C24.7856 38.64 24.6592 38.7648 24.4784 38.8496C24.2976 38.9376 23.9552 38.9824 23.4464 38.9824H22.6832V41.6544H27.6736V44.832H30.9456V41.6544H32.8064C32.8928 41.6544 32.9712 41.6528 33.0496 41.6528V44.832H36.3216V41.3792C36.8704 41.2736 37.3552 41.1408 37.7632 40.9728C38.8912 40.5232 39.7632 39.8672 40.3856 39.0032C41.0048 38.1456 41.3152 37.2 41.3152 36.1744ZM34.3264 29.8864C34.8592 29.7024 35.256 29.4224 35.5248 29.0528C35.792 28.68 35.9248 28.2464 35.9248 27.7568C35.9248 27.2496 35.7984 26.816 35.5456 26.456C35.2912 26.096 34.9216 25.84 34.4448 25.688C33.9632 25.5344 33.104 25.4576 31.8704 25.4576H29.752V30.1664H31.8704C32.9776 30.1648 33.7952 30.072 34.3264 29.8864Z" fill="#0F5AE0"/>
</svg>
