<svg width="16" height="15" viewBox="0 0 16 15" fill="none" xmlns="http://www.w3.org/2000/svg">
<path d="M2.40015 3.75C2.40011 3.75 2.40005 3.75 2.40001 3.75H1.33335C1.18611 3.74997 1.06671 3.86184 1.06668 3.99988C1.06668 3.99991 1.06668 3.99997 1.06668 4V5C1.06665 5.13803 1.18598 5.24997 1.33321 5.25C1.33325 5.25 1.33331 5.25 1.33335 5.25H2.40001C2.54725 5.25003 2.66665 5.13816 2.66668 5.00012C2.66668 5.00009 2.66668 5.00003 2.66668 5V4C2.66671 3.86197 2.54738 3.75003 2.40015 3.75ZM2.13335 4.75H1.60001V4.25H2.13335V4.75Z" fill="white"/>
<path d="M5.60013 3.75C5.6001 3.75 5.60003 3.75 5.6 3.75H4.53333C4.3861 3.74997 4.2667 3.86184 4.26666 3.99988C4.26666 3.99991 4.26666 3.99997 4.26666 4V5C4.26663 5.13803 4.38596 5.24997 4.5332 5.25C4.53323 5.25 4.5333 5.25 4.53333 5.25H5.6C5.74723 5.25003 5.86663 5.13816 5.86666 5.00012C5.86666 5.00009 5.86666 5.00003 5.86666 5V4C5.8667 3.86197 5.74736 3.75003 5.60013 3.75ZM5.33333 4.75H4.8V4.25H5.33333V4.75Z" fill="white"/>
<path d="M8.80014 3.75C8.80011 3.75 8.80004 3.75 8.80001 3.75H7.73334C7.58611 3.74997 7.46671 3.86184 7.46667 3.99988C7.46667 3.99991 7.46667 3.99997 7.46667 4V5C7.46664 5.13803 7.58597 5.24997 7.73321 5.25C7.73324 5.25 7.73331 5.25 7.73334 5.25H8.80001C8.94724 5.25003 9.06664 5.13816 9.06667 5.00012C9.06667 5.00009 9.06667 5.00003 9.06667 5V4C9.06671 3.86197 8.94737 3.75003 8.80014 3.75ZM8.53334 4.75H8.00001V4.25H8.53334V4.75Z" fill="white"/>
<path d="M2.40015 6.5C2.40011 6.5 2.40005 6.5 2.40001 6.5H1.33335C1.18611 6.49997 1.06671 6.61184 1.06668 6.74987C1.06668 6.74991 1.06668 6.74997 1.06668 6.75V7.75C1.06665 7.88803 1.18598 7.99997 1.33321 8C1.33325 8 1.33331 8 1.33335 8H2.40001C2.54725 8.00003 2.66665 7.88816 2.66668 7.75012C2.66668 7.75009 2.66668 7.75003 2.66668 7.75V6.75C2.66671 6.61197 2.54738 6.50003 2.40015 6.5ZM2.13335 7.5H1.60001V7H2.13335V7.5Z" fill="white"/>
<path d="M5.60013 6.5C5.6001 6.5 5.60003 6.5 5.6 6.5H4.53333C4.3861 6.49997 4.2667 6.61184 4.26666 6.74987C4.26666 6.74991 4.26666 6.74997 4.26666 6.75V7.75C4.26663 7.88803 4.38596 7.99997 4.5332 8C4.53323 8 4.5333 8 4.53333 8H5.6C5.74723 8.00003 5.86663 7.88816 5.86666 7.75012C5.86666 7.75009 5.86666 7.75003 5.86666 7.75V6.75C5.8667 6.61197 5.74736 6.50003 5.60013 6.5ZM5.33333 7.5H4.8V7H5.33333V7.5Z" fill="white"/>
<path d="M8.80014 6.5C8.80011 6.5 8.80004 6.5 8.80001 6.5H7.73334C7.58611 6.49997 7.46671 6.61184 7.46667 6.74987C7.46667 6.74991 7.46667 6.74997 7.46667 6.75V7.75C7.46664 7.88803 7.58597 7.99997 7.73321 8C7.73324 8 7.73331 8 7.73334 8H8.80001C8.94724 8.00003 9.06664 7.88816 9.06667 7.75012C9.06667 7.75009 9.06667 7.75003 9.06667 7.75V6.75C9.06671 6.61197 8.94737 6.50003 8.80014 6.5ZM8.53334 7.5H8.00001V7H8.53334V7.5Z" fill="white"/>
<path d="M2.40015 9.25C2.40011 9.25 2.40005 9.25 2.40001 9.25H1.33335C1.18611 9.24997 1.06671 9.36184 1.06668 9.49988C1.06668 9.49991 1.06668 9.49997 1.06668 9.5V10.5C1.06665 10.638 1.18598 10.75 1.33321 10.75C1.33325 10.75 1.33331 10.75 1.33335 10.75H2.40001C2.54725 10.75 2.66665 10.6382 2.66668 10.5001C2.66668 10.5001 2.66668 10.5 2.66668 10.5V9.5C2.66671 9.36197 2.54738 9.25003 2.40015 9.25ZM2.13335 10.25H1.60001V9.75H2.13335V10.25Z" fill="white"/>
<path d="M5.60013 9.25C5.6001 9.25 5.60003 9.25 5.6 9.25H4.53333C4.3861 9.24997 4.2667 9.36184 4.26666 9.49988C4.26666 9.49991 4.26666 9.49997 4.26666 9.5V10.5C4.26663 10.638 4.38596 10.75 4.5332 10.75C4.53323 10.75 4.5333 10.75 4.53333 10.75H5.6C5.74723 10.75 5.86663 10.6382 5.86666 10.5001C5.86666 10.5001 5.86666 10.5 5.86666 10.5V9.5C5.8667 9.36197 5.74736 9.25003 5.60013 9.25ZM5.33333 10.25H4.8V9.75H5.33333V10.25Z" fill="white"/>
<path d="M8.80014 9.25C8.80011 9.25 8.80004 9.25 8.80001 9.25H7.73334C7.58611 9.24997 7.46671 9.36184 7.46667 9.49988C7.46667 9.49991 7.46667 9.49997 7.46667 9.5V10.5C7.46664 10.638 7.58597 10.75 7.73321 10.75C7.73324 10.75 7.73331 10.75 7.73334 10.75H8.80001C8.94724 10.75 9.06664 10.6382 9.06667 10.5001C9.06667 10.5001 9.06667 10.5 9.06667 10.5V9.5C9.06671 9.36197 8.94737 9.25003 8.80014 9.25ZM8.53334 10.25H8.00001V9.75H8.53334V10.25Z" fill="white"/>
<path d="M2.40015 12C2.40011 12 2.40005 12 2.40001 12H1.33335C1.18611 12 1.06671 12.1118 1.06668 12.2499C1.06668 12.2499 1.06668 12.25 1.06668 12.25V13.25C1.06665 13.388 1.18598 13.5 1.33321 13.5C1.33325 13.5 1.33331 13.5 1.33335 13.5H2.40001C2.54725 13.5 2.66665 13.3882 2.66668 13.2501C2.66668 13.2501 2.66668 13.25 2.66668 13.25V12.25C2.66671 12.112 2.54738 12 2.40015 12ZM2.13335 13H1.60001V12.5H2.13335V13Z" fill="white"/>
<path d="M8.80014 12C8.80011 12 8.80004 12 8.80001 12H7.73334C7.58611 12 7.46671 12.1118 7.46667 12.2499C7.46667 12.2499 7.46667 12.25 7.46667 12.25V13.25C7.46664 13.388 7.58597 13.5 7.73321 13.5C7.73324 13.5 7.73331 13.5 7.73334 13.5H8.80001C8.94724 13.5 9.06664 13.3882 9.06667 13.2501C9.06667 13.2501 9.06667 13.25 9.06667 13.25V12.25C9.06671 12.112 8.94737 12 8.80014 12ZM8.53334 13H8.00001V12.5H8.53334V13Z" fill="white"/>
<path d="M15.7335 6.25C15.7334 6.25 15.7334 6.25 15.7333 6.25H13.0667V4.99853C13.3078 5.12591 13.577 5.19966 13.8534 5.21409C13.8814 5.21556 13.9094 5.21603 13.9371 5.21603C14.383 5.21516 14.8099 5.04644 15.1219 4.74778C15.226 4.65022 15.226 4.49197 15.122 4.39437C15.1219 4.39434 15.1219 4.39431 15.1219 4.39428L14.2059 3.53553L14.8552 2.92675L14.4781 2.57325L13.8288 3.182L12.9128 2.32325C12.807 2.2295 12.6415 2.2295 12.5357 2.32325C11.8717 2.95288 11.8706 3.96587 12.5334 4.59669V6.25H10.1334V3C10.1334 2.86197 10.0141 2.75003 9.86683 2.75C9.8668 2.75 9.86673 2.75 9.8667 2.75H9.60003V2C9.60007 1.86197 9.48073 1.75003 9.3335 1.75C9.33347 1.75 9.3334 1.75 9.33337 1.75H8.53337V0.25C8.5334 0.111969 8.41407 3.12565e-05 8.26683 6.54519e-09C8.2668 6.54519e-09 8.26673 6.54519e-09 8.2667 6.54519e-09H1.86667C1.71943 -3.12435e-05 1.60003 0.111844 1.6 0.249875C1.6 0.249906 1.6 0.249969 1.6 0.25V1.75H0.8C0.652767 1.74997 0.533367 1.86184 0.533333 1.99987C0.533333 1.99991 0.533333 1.99997 0.533333 2V2.75H0.266667C0.119433 2.74997 3.33403e-05 2.86184 6.98154e-09 2.99988C6.98154e-09 2.99991 6.98154e-09 2.99997 6.98154e-09 3V14.75C-3.33264e-05 14.888 0.1193 15 0.266533 15C0.266567 15 0.266633 15 0.266667 15H15.7333C15.8806 15 16 14.8882 16 14.7501C16 14.7501 16 14.75 16 14.75V6.5C16 6.36197 15.8807 6.25003 15.7335 6.25ZM2.13333 0.5H8V1.75H2.13333V0.5ZM1.06667 2.25H9.06667V2.75H1.06667V2.25ZM4.8 14.5H3.73333V12.7019C3.73357 12.4525 3.94917 12.2503 4.21523 12.25H4.8V14.5ZM6.4 14.5H5.33333V12.25H5.9181C6.18417 12.2503 6.39977 12.4525 6.4 12.7019V14.5ZM9.6 14.5H6.93333V12.7019C6.93273 12.1765 6.47857 11.7506 5.9181 11.75H4.21523C3.65477 11.7506 3.2006 12.1765 3.2 12.7019V14.5H0.533333V3.25H9.6V14.5ZM12.7445 2.87256L14.5363 4.5525C14.3414 4.67053 14.1116 4.72738 13.88 4.71484C13.5413 4.69247 13.2236 4.55291 12.9886 4.32325C12.5451 3.95791 12.4425 3.34809 12.7445 2.87256ZM13.6 14.5H12V13.1467C12.0003 12.9277 12.1897 12.7502 12.4233 12.75H13.1767C13.4103 12.7502 13.5997 12.9277 13.6 13.1467V14.5ZM15.4667 14.5H14.1333V13.1467C14.1327 12.6517 13.7047 12.2506 13.1767 12.25H12.4233C11.8953 12.2506 11.4673 12.6517 11.4667 13.1467V14.5H10.1333V6.75H15.4667V14.5Z" fill="white"/>
<path d="M13.6001 7.25C13.6001 7.25 13.6 7.25 13.6 7.25H12C11.8528 7.24997 11.7334 7.36184 11.7333 7.49987C11.7333 7.49991 11.7333 7.49997 11.7333 7.5V9C11.7333 9.13803 11.8526 9.24997 11.9999 9.25C11.9999 9.25 12 9.25 12 9.25H13.6C13.7472 9.25003 13.8666 9.13815 13.8667 9.00012C13.8667 9.00009 13.8667 9.00003 13.8667 9V7.5C13.8667 7.36197 13.7474 7.25003 13.6001 7.25ZM13.3333 8.75H12.2667V7.75H13.3333V8.75Z" fill="white"/>
<path d="M13.6001 9.75C13.6001 9.75 13.6 9.75 13.6 9.75H12C11.8528 9.74997 11.7334 9.86184 11.7333 9.99988C11.7333 9.99991 11.7333 9.99997 11.7333 10V11.5C11.7333 11.638 11.8526 11.75 11.9999 11.75C11.9999 11.75 12 11.75 12 11.75H13.6C13.7472 11.75 13.8666 11.6382 13.8667 11.5001C13.8667 11.5001 13.8667 11.5 13.8667 11.5V10C13.8667 9.86197 13.7474 9.75003 13.6001 9.75ZM13.3333 11.25H12.2667V10.25H13.3333V11.25Z" fill="white"/>
</svg>
