<svg width="64" height="64" viewBox="0 0 64 64" fill="none" xmlns="http://www.w3.org/2000/svg">
<path d="M62.433 7.96684C61.3886 6.9225 60.1332 6.40039 58.6668 6.40039H5.33329C3.86667 6.40039 2.61148 6.92238 1.56645 7.96684C0.521993 9.01141 0 10.2666 0 11.7333V52.2661C0 53.7332 0.521993 54.9885 1.56645 56.0329C2.61148 57.0774 3.86667 57.5996 5.33329 57.5996H58.6668C60.1332 57.5996 61.3885 57.0774 62.433 56.0329C63.4773 54.9886 64 53.7333 64 52.2661V11.7333C64 10.2666 63.4773 9.01141 62.433 7.96684ZM59.7329 52.2669C59.7329 52.5562 59.6274 52.8055 59.4164 53.0172C59.2054 53.2274 58.9553 53.3328 58.6668 53.3328H5.33329C5.04457 53.3328 4.79449 53.2274 4.5834 53.0164C4.37244 52.8048 4.26678 52.5554 4.26678 52.2661V32H59.733V52.2669H59.7329ZM59.7329 19.1995H4.26666V11.7329C4.26666 11.444 4.37197 11.1945 4.58329 10.983C4.79449 10.7725 5.04457 10.6668 5.33318 10.6668H58.6667C58.9552 10.6668 59.2053 10.772 59.4162 10.983C59.6273 11.1945 59.7328 11.444 59.7328 11.7329V19.1995H59.7329Z" fill="white"/>
<path d="M17.0667 44.7996H8.53354V49.0666H17.0667V44.7996Z" fill="white"/>
<path d="M34.1335 44.7996H21.3336V49.0666H34.1335V44.7996Z" fill="white"/>
</svg>
