<svg width="64" height="64" viewBox="0 0 64 64" fill="none" xmlns="http://www.w3.org/2000/svg">
<path d="M55.3756 0H8.62419C3.86128 0 0 3.86109 0 8.62413V55.3756C0 60.1386 3.86112 63.9997 8.62419 63.9997H31.6818L31.7211 41.1297H25.7794C25.0073 41.1297 24.3805 40.5053 24.3776 39.7331L24.3491 32.3612C24.3461 31.5848 24.9747 30.9539 25.7511 30.9539H31.6819V23.8307C31.6819 15.5643 36.7306 11.0632 44.1048 11.0632H50.1559C50.9301 11.0632 51.5579 11.6908 51.5579 12.4652V18.6813C51.5579 19.4553 50.9306 20.0828 50.1567 20.0833L46.4432 20.085C42.4329 20.085 41.6563 21.9906 41.6563 24.7873V30.954H50.4684C51.308 30.954 51.9595 31.6872 51.8605 32.521L50.9868 39.893C50.9032 40.5985 50.3049 41.13 49.5946 41.13H41.6956L41.6563 64H55.376C60.1389 64 64 60.1389 64 55.376V8.62413C63.9998 3.86109 60.1387 0 55.3756 0Z" fill="#475993"/>
</svg>
