<svg width="77" height="82" viewBox="0 0 77 82" fill="none" xmlns="http://www.w3.org/2000/svg">
<path d="M15.6406 60.2188V57.6562C13.6507 57.6562 12.0312 55.9317 12.0312 53.8125H14.4375C14.4375 54.5197 14.9777 55.0938 15.6406 55.0938H19.25V53.8125C19.25 53.1053 18.7098 52.5312 18.0469 52.5312H15.6406C13.6507 52.5312 12.0312 50.8067 12.0312 48.6875V44.8438H15.6406V42.2812H18.0469V44.8438C20.0368 44.8438 21.6562 46.5683 21.6562 48.6875H19.25C19.25 47.9803 18.7098 47.4062 18.0469 47.4062H14.4375V48.6875C14.4375 49.3947 14.9777 49.9688 15.6406 49.9688H18.0469C20.0368 49.9688 21.6562 51.6933 21.6562 53.8125V57.6562H18.0469V60.2188H15.6406ZM73.3906 25.625H75.7969V35.875H71.6329C71.4175 35.875 71.2009 35.884 70.9844 35.8853V74.3125C70.9844 77.8449 68.2858 80.7188 64.9688 80.7188H33.6875C30.3705 80.7188 27.6719 77.8449 27.6719 74.3125V72.7955C27.2941 72.939 26.8923 73.0312 26.4688 73.0312H22.638C22.7728 73.4336 22.8594 73.8615 22.8594 74.3125V76.875C22.8594 78.9942 21.24 80.7188 19.25 80.7188H4.8125C2.82253 80.7188 1.20312 78.9942 1.20312 76.875V74.3125C1.20312 72.1933 2.82253 70.4688 4.8125 70.4688H8.64325C8.5085 70.0664 8.42188 69.6385 8.42188 69.1875V66.625C8.42188 65.2515 9.10766 64.0523 10.1279 63.3732C6.23339 60.917 3.60938 56.4096 3.60938 51.25C3.60938 43.4792 9.5468 37.1562 16.8438 37.1562C21.3194 37.1562 25.2752 39.5407 27.6719 43.1717V35.884C27.4565 35.884 27.24 35.875 27.0234 35.875H22.8594V25.625H25.2656C26.1006 25.625 26.8898 25.6775 27.6719 25.7365V7.6875C27.6719 4.15509 30.3705 1.28125 33.6875 1.28125H64.9688C68.2858 1.28125 70.9844 4.15509 70.9844 7.6875V25.7365C71.7664 25.6775 72.5557 25.625 73.3906 25.625ZM30.0781 26.026C30.9131 26.1606 31.7144 26.3284 32.4844 26.527V14.0938C32.4844 12.6805 33.5636 11.5312 34.8906 11.5312H63.7656C65.0927 11.5312 66.1719 12.6805 66.1719 14.0938V26.527C66.9419 26.3284 67.7432 26.1606 68.5781 26.026V7.6875C68.5781 5.56831 66.9587 3.84375 64.9688 3.84375H33.6875C31.6975 3.84375 30.0781 5.56831 30.0781 7.6875V26.026ZM34.8906 67.9062H63.7656V36.1646C61.997 36.2888 60.2308 36.4439 58.4791 36.6514L54.8204 37.0845C53.4572 38.9218 52.5056 40.7566 51.8487 42.2941C53.7857 42.3594 55.3438 44.0468 55.3438 46.125V56.375C55.3438 59.9074 52.6451 62.7812 49.3281 62.7812C46.0111 62.7812 43.3125 59.9074 43.3125 56.375V46.125C43.3125 44.0468 44.8705 42.3607 46.8064 42.2941C46.1495 40.7566 45.1978 38.9205 43.8359 37.0845L40.1772 36.6514C38.4254 36.4439 36.6592 36.2888 34.8906 36.1646V67.9062ZM46.9219 44.8438C46.259 44.8438 45.7188 45.4178 45.7188 46.125V56.375C45.7188 58.4942 47.3382 60.2188 49.3281 60.2188C51.3181 60.2188 52.9375 58.4942 52.9375 56.375V46.125C52.9375 45.4178 52.3973 44.8438 51.7344 44.8438H46.9219ZM50.3785 39.6701C50.0295 39.7008 49.6782 39.7188 49.3281 39.7188C48.9768 39.7188 48.6267 39.7008 48.2766 39.6701C48.6965 40.5157 49.0466 41.3152 49.3269 42.0314C49.6097 41.3152 49.9586 40.5157 50.3785 39.6701ZM59.5619 29.3265C59.9493 28.1196 60.1562 26.8768 60.1562 25.625C60.1562 19.2674 55.298 14.0938 49.3281 14.0938C43.3582 14.0938 38.5 19.2674 38.5 25.625C38.5 26.8768 38.7069 28.1196 39.0943 29.3253C42.4679 31.4278 44.9066 34.144 46.6163 36.7616C48.4017 37.2536 50.2545 37.2536 52.04 36.7616C53.7496 34.144 56.1895 31.4291 59.5619 29.3265ZM36.0938 25.625C36.0938 20.8587 38.3328 16.646 41.7424 14.0938H34.8906V27.2752C35.361 27.4495 35.8267 27.6263 36.2694 27.8223C36.1599 27.0959 36.0938 26.363 36.0938 25.625ZM62.5625 25.625C62.5625 26.363 62.4963 27.0959 62.3868 27.8236C62.8296 27.6263 63.2964 27.4508 63.7656 27.2765V14.0938H56.9138C60.3235 16.646 62.5625 20.8587 62.5625 25.625ZM27.0234 33.3125C31.4906 33.3125 36.0059 33.579 40.4418 34.1043L41.3057 34.2068C37.8491 30.8948 32.7382 28.1875 25.2656 28.1875V33.3125H27.0234ZM16.8438 62.7812C22.8137 62.7812 27.6719 57.6088 27.6719 51.25C27.6719 44.8912 22.8137 39.7188 16.8438 39.7188C10.8738 39.7188 6.01562 44.8912 6.01562 51.25C6.01562 57.6088 10.8738 62.7812 16.8438 62.7812ZM27.6719 59.3283C26.7864 60.6698 25.6891 61.8382 24.4295 62.7812H26.4688C26.8923 62.7812 27.2941 62.8735 27.6719 63.017V59.3283ZM19.25 73.0312H18.0469V75.5938H15.6406V73.0312H13.2344V75.5938H10.8281V73.0312H8.42188V75.5938H6.01562V73.0312H4.8125C4.14958 73.0312 3.60938 73.6052 3.60938 74.3125V76.875C3.60938 77.5823 4.14958 78.1562 4.8125 78.1562H19.25C19.9129 78.1562 20.4531 77.5823 20.4531 76.875V74.3125C20.4531 73.6052 19.9129 73.0312 19.25 73.0312ZM27.6719 69.1875V66.625C27.6719 65.9177 27.1317 65.3438 26.4688 65.3438H25.2656V67.9062H22.8594V65.3438H20.4531V67.9062H18.0469V65.3438H15.6406V67.9062H13.2344V65.3438H12.0312C11.3683 65.3438 10.8281 65.9177 10.8281 66.625V69.1875C10.8281 69.8948 11.3683 70.4688 12.0312 70.4688H19.25H26.4688C27.1317 70.4688 27.6719 69.8948 27.6719 69.1875ZM68.5781 35.9198C67.7756 35.9416 66.9744 35.9801 66.1719 36.0198V67.9062C66.1719 69.3195 65.0927 70.4688 63.7656 70.4688H34.8906C33.5636 70.4688 32.4844 69.3195 32.4844 67.9062V36.0198C31.6819 35.9801 30.8806 35.9429 30.0781 35.9198V66.625V69.1875V74.3125C30.0781 76.4317 31.6975 78.1562 33.6875 78.1562H64.9688C66.9587 78.1562 68.5781 76.4317 68.5781 74.3125V35.9198ZM73.3906 28.1875C65.9192 28.1875 60.8071 30.8948 57.3506 34.2068L58.2132 34.1043C62.6491 33.579 67.1645 33.3125 71.6329 33.3125H73.3906V28.1875ZM45.7188 6.40625H43.3125V8.96875H45.7188V6.40625ZM55.3438 6.40625H48.125V8.96875H55.3438V6.40625ZM43.3125 75.5938H55.3438V73.0312H43.3125V75.5938ZM50.5312 47.4062H48.125V49.9688H50.5312V47.4062ZM50.5312 52.5312H48.125V55.0938H50.5312V52.5312ZM37.2969 55.0938H39.7031V52.5312H37.2969V55.0938ZM37.2969 60.2188H39.7031V57.6562H37.2969V60.2188ZM37.2969 65.3438H39.7031V62.7812H37.2969V65.3438ZM58.9531 47.4062H61.3594V44.8438H58.9531V47.4062ZM58.9531 42.2812H61.3594V39.7188H58.9531V42.2812ZM58.9531 52.5312H61.3594V49.9688H58.9531V52.5312ZM50.5312 21.7812C51.1942 21.7812 51.7344 22.3565 51.7344 23.0625H54.1406C54.1406 20.9433 52.5212 19.2188 50.5312 19.2188V16.6562H48.125V19.2188H44.5156V23.0625C44.5156 25.1817 46.135 26.9062 48.125 26.9062H50.5312C51.1942 26.9062 51.7344 27.4815 51.7344 28.1875V29.4688H48.125C47.4621 29.4688 46.9219 28.8935 46.9219 28.1875H44.5156C44.5156 30.3067 46.135 32.0312 48.125 32.0312V34.5938H50.5312V32.0312H54.1406V28.1875C54.1406 26.0683 52.5212 24.3438 50.5312 24.3438H48.125C47.4621 24.3438 46.9219 23.7685 46.9219 23.0625V21.7812H50.5312Z" fill="#1A32DC"/>
</svg>
