<svg width="77" height="82" viewBox="0 0 77 82" fill="none" xmlns="http://www.w3.org/2000/svg">
<path d="M51.7344 6.40635C44.4374 6.40635 38.5 12.7293 38.5 20.5001C38.5 28.2709 44.4374 34.5938 51.7344 34.5938C59.0313 34.5938 64.9688 28.2709 64.9688 20.5001C64.9688 12.7293 59.0313 6.40635 51.7344 6.40635ZM51.7344 32.0313C45.7645 32.0313 40.9062 26.8589 40.9062 20.5001C40.9062 14.1413 45.7645 8.96885 51.7344 8.96885C57.7043 8.96885 62.5625 14.1413 62.5625 20.5001C62.5625 26.8589 57.7043 32.0313 51.7344 32.0313ZM49.3281 16.6563V17.9376C49.3281 18.6448 49.8683 19.2188 50.5312 19.2188H52.9375C54.9275 19.2188 56.5469 20.9434 56.5469 23.0626V26.9063H52.9375V29.4688H50.5312V26.9063C48.5413 26.9063 46.9219 25.1818 46.9219 23.0626H49.3281C49.3281 23.7698 49.8683 24.3438 50.5312 24.3438H54.1406V23.0626C54.1406 22.3553 53.6004 21.7813 52.9375 21.7813H50.5312C48.5413 21.7813 46.9219 20.0568 46.9219 17.9376V14.0938H50.5312V11.5313H52.9375V14.0938C54.9275 14.0938 56.5469 15.8184 56.5469 17.9376H54.1406C54.1406 17.2303 53.6004 16.6563 52.9375 16.6563H49.3281ZM49.3281 73.0313H46.9219V52.5313H49.3281V45.3115L30.3609 35.8059C27.1918 34.2197 23.3382 34.2197 20.1692 35.8059L1.20313 45.3115V52.5313H3.60697V73.0313H1.20072V80.7188H49.3281V73.0313ZM44.5156 73.0313H42.1094V52.5313H44.5156V73.0313ZM15.6382 52.5313V73.0313H10.8257V52.5313H15.6382ZM18.0445 52.5313H20.4507V73.0313H18.0445V52.5313ZM22.857 52.5313H27.6695V73.0313H22.857V52.5313ZM30.0757 52.5313H32.482V73.0313H30.0757V52.5313ZM34.8882 52.5313H39.7031V73.0313H34.8882V52.5313ZM3.60938 49.9688V47.4063H46.9219V49.9688H3.60938ZM21.1943 38.1263C23.7256 36.8578 26.8044 36.8578 29.337 38.1263L42.7422 44.8438H7.78903L21.1943 38.1263ZM6.01322 52.5313H8.41947V73.0313H6.01322V52.5313ZM46.9219 78.1563H3.60697V75.5938H46.9219V78.1563ZM64.9688 37.1563H52.135C43.7264 37.1563 36.6965 30.3619 36.1323 21.6891C35.8014 16.6064 37.6181 11.7158 41.1168 8.27056C44.6131 4.82528 49.357 3.27881 54.1322 4.03347C60.9563 5.10972 66.3451 10.9573 67.2378 18.2579C67.8683 23.4149 66.2886 28.481 62.9066 32.1569L64.6259 33.9507C68.5288 29.7084 70.3503 23.8698 69.6248 17.9273C68.5938 9.49672 62.3688 2.74197 54.4847 1.49916C48.9852 0.633032 43.517 2.41525 39.4818 6.38841C35.4465 10.3641 33.3506 16.0055 33.732 21.8659C34.3829 31.8776 42.4667 39.7188 52.135 39.7188H64.9688C69.6128 39.7188 73.3906 43.7433 73.3906 48.6876C73.3906 53.6319 69.6128 57.6563 64.9688 57.6563H62.5625V51.7395L49.0442 58.9376L62.5625 66.1357V60.2188H64.9688C70.9387 60.2188 75.7969 55.0464 75.7969 48.6876C75.7969 42.3288 70.9387 37.1563 64.9688 37.1563ZM60.1562 61.9895L54.4246 58.9376L60.1562 55.8857V61.9895Z" fill="#1A32DC"/>
</svg>
