<svg width="77" height="82" viewBox="0 0 77 82" fill="none" xmlns="http://www.w3.org/2000/svg">
<path d="M36.0938 57.6562H38.5V60.2188H36.0938V57.6562ZM26.4688 60.2188H28.875V57.6562H26.4688V60.2188ZM31.2812 60.2188H33.6875V57.6562H31.2812V60.2188ZM75.7969 23.0625C75.7969 31.6789 71.0963 39.3587 63.7656 42.886V58.9375C63.7656 62.4699 61.067 65.3438 57.75 65.3438H38.5V67.9062H45.1172L49.3281 73.8858V80.7188H15.6406V73.8858L19.8516 67.9062H26.4688V65.3438H7.21875C3.90173 65.3438 1.20312 62.4699 1.20312 58.9375V25.625C1.20312 22.0926 3.90173 19.2188 7.21875 19.2188H14.0705C15.1654 18.3988 16.3781 17.7466 17.6811 17.3084C15.7104 15.6646 14.4375 13.1149 14.4375 10.25C14.4375 5.30566 18.2153 1.28125 22.8594 1.28125C27.5034 1.28125 31.2812 5.30566 31.2812 10.25C31.2812 13.1149 30.0083 15.6646 28.0376 17.3084C29.3406 17.7466 30.5522 18.4 31.6482 19.2188H35.248C36.9744 8.92006 45.4192 1.28125 55.3438 1.28125C66.6218 1.28125 75.7969 11.0521 75.7969 23.0625ZM26.1162 45.7496L24.7675 47.1859C24.3188 47.6625 24.0625 48.3236 24.0625 48.9976V52.5312H28.875V42.2812H16.8438V52.5312H21.6562V48.9976C21.6562 47.6471 22.17 46.3274 23.0663 45.3742L24.415 43.9379L26.1162 45.7496ZM10.8281 30.75V42.2812C10.8281 43.6945 11.9073 44.8438 13.2344 44.8438H14.4375V26.9062H16.8438V39.7188H28.875V26.9062H31.2812V44.8438H32.4844C33.8114 44.8438 34.8906 43.6945 34.8906 42.2812V30.75C34.8906 26.4335 32.6492 22.6692 29.3442 20.6935L27.1208 32.5309L22.8594 26.4796L18.5979 32.5309L16.3745 20.6935C13.0695 22.6692 10.8281 26.4335 10.8281 30.75ZM21.1148 19.2482L22.8594 22.0337L24.6027 19.2482C24.4222 19.238 24.2454 19.2188 24.0625 19.2188H21.6562C21.4734 19.2188 21.2953 19.238 21.1148 19.2482ZM24.3332 24.3002L25.8167 26.4078L27.0186 20.0106L24.3332 24.3002ZM21.3855 24.3002L18.7002 20.0106L19.9021 26.4066L21.3855 24.3002ZM31.2812 52.5312H61.3594V25.625C61.3594 23.5058 59.74 21.7812 57.75 21.7812H34.2638C36.1575 24.2195 37.2969 27.3457 37.2969 30.75V42.2812C37.2969 45.1077 35.1385 47.4062 32.4844 47.4062H31.2812V52.5312ZM50.6323 11.5312H60.048C58.8605 6.80472 57.0438 3.84375 55.3438 3.84375C53.6907 3.84375 51.839 6.73681 50.6323 11.5312ZM50.0837 14.0938C49.8034 15.662 49.5916 17.3789 49.4653 19.2188H57.75C59.0783 19.2188 60.2958 19.6941 61.2932 20.4744C61.1861 18.1745 60.9443 16.0297 60.5978 14.0938H50.0837ZM63.7656 25.625V32.0312H71.3032C72.463 29.6904 73.1765 27.0843 73.3449 24.3438H63.744C63.7392 24.5859 63.7404 24.8319 63.7319 25.0715L63.7127 25.0702C63.7283 25.2573 63.7656 25.4354 63.7656 25.625ZM73.3293 21.7812C73.1572 19.0202 72.4486 16.4154 71.2924 14.0938H63.0377C63.4468 16.5512 63.6838 19.1675 63.7428 21.7812H73.3293ZM59.8831 4.48438C61.0081 6.29222 61.902 8.73684 62.5433 11.5312H69.7464C67.3305 8.11672 63.8775 5.59266 59.8831 4.48438ZM40.9411 11.5312H48.1491C48.7855 8.76503 49.6734 6.30119 50.808 4.47669C46.8304 5.58241 43.3666 8.10006 40.9411 11.5312ZM37.6867 19.2188H47.0518C47.1661 17.4942 47.3634 15.7658 47.6425 14.0938H39.3987C38.6131 15.6787 38.0344 17.4007 37.6867 19.2188ZM22.8594 16.6562C26.1764 16.6562 28.875 13.7824 28.875 10.25C28.875 6.71759 26.1764 3.84375 22.8594 3.84375C19.5424 3.84375 16.8438 6.71759 16.8438 10.25C16.8438 13.7824 19.5424 16.6562 22.8594 16.6562ZM3.60938 25.625V52.5312H14.4375V47.4062H13.2344C10.5803 47.4062 8.42188 45.1077 8.42188 42.2812V30.75C8.42188 27.3457 9.56123 24.2195 11.455 21.7812H7.21875C5.22878 21.7812 3.60938 23.5058 3.60938 25.625ZM19.25 73.0312H26.4688V70.4688H21.0547L19.25 73.0312ZM46.9219 78.1562V75.5938H18.0469V78.1562H46.9219ZM38.5 70.4688V73.0312H45.7188L43.9141 70.4688H38.5ZM36.0938 65.3438H28.875V73.0312H36.0938V65.3438ZM61.3594 58.9375V55.0938H3.60938V58.9375C3.60938 61.0567 5.22878 62.7812 7.21875 62.7812H57.75C59.74 62.7812 61.3594 61.0567 61.3594 58.9375ZM69.7812 34.5938H63.7656V40.0403C66.1671 38.6937 68.2052 36.8257 69.7812 34.5938ZM58.9531 26.9062V39.7188C58.9531 41.132 57.8739 42.2812 56.5469 42.2812H42.1094C40.7823 42.2812 39.7031 41.132 39.7031 39.7188V26.9062C39.7031 25.493 40.7823 24.3438 42.1094 24.3438H56.5469C57.8739 24.3438 58.9531 25.493 58.9531 26.9062ZM56.5481 39.7188L56.5469 26.9062H42.1094V39.7188H56.5481ZM44.5156 32.0312H54.1406V29.4688H44.5156V32.0312ZM44.5156 37.1562H54.1406V34.5938H44.5156V37.1562ZM46.9219 49.9688H49.3281V47.4062H46.9219V49.9688ZM51.7344 49.9688H54.1406V47.4062H51.7344V49.9688ZM56.5469 49.9688H58.9531V47.4062H56.5469V49.9688Z" fill="#1A32DC"/>
</svg>
