<svg width="77" height="82" viewBox="0 0 77 82" fill="none" xmlns="http://www.w3.org/2000/svg">
<path d="M69.7812 39.7188H61.3594V25.625C61.3594 22.0772 59.4103 19.0138 56.5974 17.5595C58.7462 15.9336 60.1562 13.2661 60.1562 10.25C60.1562 5.30438 56.3772 1.28125 51.7344 1.28125C47.0915 1.28125 43.3125 5.30438 43.3125 10.25C43.3125 12.7587 44.287 15.0265 45.8523 16.6562H37.2969V12.8125C37.2969 10.6933 35.6775 8.96875 33.6875 8.96875H12.0312C10.0413 8.96875 8.42188 10.6933 8.42188 12.8125V39.7188H7.21875C3.90173 39.7188 1.20312 42.5926 1.20312 46.125V74.3125C1.20312 77.8449 3.90173 80.7188 7.21875 80.7188H69.7812C73.0983 80.7188 75.7969 77.8449 75.7969 74.3125V46.125C75.7969 42.5926 73.0983 39.7188 69.7812 39.7188ZM61.3594 62.7812V47.4062H63.7656V73.0312H13.2344V52.5312H33.6875C35.6775 52.5312 37.2969 50.8067 37.2969 48.6875V47.4062H40.3985C39.9534 48.6901 39.7067 50.0482 39.7091 51.4243L39.732 62.2316C39.5972 63.5577 39.9462 64.8671 40.7174 65.9254C41.5066 67.0068 42.6412 67.6961 43.9092 67.8652C44.1126 67.8922 44.3183 67.9062 44.5168 67.9062C46.9375 67.9062 48.99 65.9767 49.2908 63.4167L49.3245 52.6261C49.3257 51.9534 49.4954 51.2897 49.8118 50.7067L51.7344 47.1756V62.7812C51.7344 65.6077 53.8928 67.9062 56.5469 67.9062C59.201 67.9062 61.3594 65.6077 61.3594 62.7812ZM15.6406 49.9688V11.5312H18.0469V49.9688H15.6406ZM44.5156 26.9062V39.3779L44.3327 39.7188H37.2969V26.9062H44.5156ZM41.5836 44.8438H37.2969V42.2812H42.9576L41.5836 44.8438ZM45.7188 10.25C45.7188 6.71759 48.4174 3.84375 51.7344 3.84375C55.0514 3.84375 57.75 6.71759 57.75 10.25C57.75 13.7824 55.0514 16.6562 51.7344 16.6562C48.4174 16.6562 45.7188 13.7824 45.7188 10.25ZM52.9375 19.2188C56.2545 19.2188 58.9531 22.0926 58.9531 25.625V62.7812C58.9531 64.1945 57.8739 65.3438 56.5469 65.3438C55.2198 65.3438 54.1406 64.1945 54.1406 62.7812V44.4043C54.1406 42.6938 53.5138 41.0846 52.378 39.8751L51.3819 38.8129L49.6806 40.6246L50.6768 41.6867C50.9656 41.9942 51.1882 42.3581 51.3638 42.7463L47.7304 49.4217C47.2022 50.3916 46.9207 51.4973 46.9183 52.6184L46.893 63.1682C46.6993 64.5186 45.5635 65.5065 44.21 65.3232C43.5784 65.2387 43.0117 64.8953 42.6183 64.3546C42.2225 63.8127 42.048 63.1413 42.1286 62.4635L42.1382 62.3828L42.1154 51.4191C42.1118 49.8534 42.4956 48.307 43.2247 46.9488L46.9219 40.0596V26.9062H47.3345C48.9419 26.9062 50.453 26.24 51.5888 25.0305L52.6042 23.9491L50.903 22.1374L49.8876 23.2188C49.2054 23.944 48.2994 24.3438 47.3345 24.3438H30.0781C28.7511 24.3438 27.6719 23.1945 27.6719 21.7812C27.6719 20.368 28.7511 19.2188 30.0781 19.2188H52.9375ZM34.8906 12.8125V16.6562H30.0781C27.424 16.6562 25.2656 18.9548 25.2656 21.7812C25.2656 24.6077 27.424 26.9062 30.0781 26.9062H34.8906V48.6875C34.8906 49.3935 34.3516 49.9688 33.6875 49.9688H20.4531V11.5312H33.6875C34.3516 11.5312 34.8906 12.1065 34.8906 12.8125ZM10.8281 12.8125C10.8281 12.1065 11.3671 11.5312 12.0312 11.5312H13.2344V49.9688H12.0312C11.3671 49.9688 10.8281 49.3935 10.8281 48.6875V12.8125ZM73.3906 74.3125C73.3906 76.4317 71.7712 78.1562 69.7812 78.1562H7.21875C5.22878 78.1562 3.60938 76.4317 3.60938 74.3125V46.125C3.60938 44.0058 5.22878 42.2812 7.21875 42.2812H8.42188V48.6875C8.42188 50.3557 9.4313 51.7651 10.8281 52.2955V73.0312C10.8281 74.4445 11.9073 75.5938 13.2344 75.5938H63.7656C65.0927 75.5938 66.1719 74.4445 66.1719 73.0312V47.4062C66.1719 45.993 65.0927 44.8438 63.7656 44.8438H61.3594V42.2812H69.7812C71.7712 42.2812 73.3906 44.0058 73.3906 46.125V74.3125ZM6.01562 64.0625H8.42188V66.625H6.01562V64.0625ZM6.01562 53.8125H8.42188V61.5H6.01562V53.8125ZM68.5781 55.0938H70.9844V65.3438H68.5781V55.0938ZM25.2656 47.4062H30.0781C31.4052 47.4062 32.4844 46.257 32.4844 44.8438V37.1562C32.4844 35.743 31.4052 34.5938 30.0781 34.5938H25.2656C23.9386 34.5938 22.8594 35.743 22.8594 37.1562V44.8438C22.8594 46.257 23.9386 47.4062 25.2656 47.4062ZM25.2656 37.1562L30.0781 37.155V44.8438H25.2656V37.1562ZM15.6406 55.0938H18.0469V70.4688H15.6406V55.0938ZM20.4531 55.0938H22.8594V70.4688H20.4531V55.0938ZM25.2656 55.0938H27.6719V70.4688H25.2656V55.0938ZM30.0781 57.6562H32.4844V60.2188H30.0781V57.6562ZM30.0781 62.7812H32.4844V65.3438H30.0781V62.7812ZM30.0781 67.9062H32.4844V70.4688H30.0781V67.9062Z" fill="#1A32DC"/>
</svg>
