<svg width="32" height="32" viewBox="0 0 32 32" fill="none" xmlns="http://www.w3.org/2000/svg">
<g clip-path="url(#clip0)">
<path d="M5.7995 26.6446L7.12031 27.9654L8.54263 26.543L8.54263 32L10.4106 32L10.4106 26.543L11.8329 27.9654L13.1537 26.6446L9.47663 22.9674L5.7995 26.6446Z" fill="white"/>
<path d="M20.9119 29.0448C18.9057 29.0448 17.2736 27.4127 17.2736 25.4066L17.2736 22.9344C16.2787 23.8932 15.6589 25.2384 15.6589 26.7292C15.6588 29.6402 18.0187 32 20.9297 32C23.8407 32 26.2005 29.6402 26.2005 26.7292C26.2005 25.2207 25.5658 23.8613 24.5501 22.9005L24.5501 25.4066C24.5501 27.4127 22.918 29.0448 20.9119 29.0448Z" fill="white"/>
<path d="M9.95738 17.6384C10.9657 17.6384 11.7831 16.821 11.7831 15.8127L11.7831 17.0002C11.7831 18.0085 12.6006 18.8259 13.6089 18.8259C14.6172 18.8259 15.4346 18.0085 15.4346 17.0002L15.4346 18.0002C15.4346 19.0085 16.2521 19.8259 17.2604 19.8259C18.2687 19.8259 19.0861 19.0085 19.0861 18.0002L19.0861 25.4064C19.0861 26.4147 19.9036 27.2322 20.9119 27.2322C21.9202 27.2322 22.7376 26.4147 22.7376 25.4064L22.7376 15.8708C24.3621 15.7411 25.6444 14.3785 25.6444 12.7212L25.6444 8.75631L21.5158 3.60568L21.5393 -0.000130059L11.012 -0.000130979L10.9948 3.62443L8.13156 8.08393L8.13156 15.8127C8.13163 16.8211 8.949 17.6384 9.95738 17.6384Z" fill="white"/>
</g>
<defs>
<clipPath id="clip0">
<rect width="32" height="32" fill="white" transform="translate(32 32) rotate(-180)"/>
</clipPath>
</defs>
</svg>
