<svg width="64" height="64" viewBox="0 0 64 64" fill="none" xmlns="http://www.w3.org/2000/svg">
<path d="M6.19355 57.8065H8.25806V59.871H6.19355V57.8065Z" fill="#1A32DC"/>
<path d="M10.3226 57.8065H12.3871V59.871H10.3226V57.8065Z" fill="#1A32DC"/>
<path d="M14.4516 57.8065H16.5161V59.871H14.4516V57.8065Z" fill="#1A32DC"/>
<path d="M49.5484 57.8065H57.8064V59.871H49.5484V57.8065Z" fill="#1A32DC"/>
<path d="M61.9355 53.6774V19.6129C61.9355 16.7671 59.62 14.4516 56.7742 14.4516H53.6774C53.6774 6.48236 47.1951 0 39.2258 0C31.2566 0 24.7742 6.48236 24.7742 14.4516H7.22581C4.38004 14.4516 2.06452 16.7671 2.06452 19.6129V53.6774H0V58.8387C0 61.6845 2.31552 64 5.16129 64H58.8387C61.6845 64 64 61.6845 64 58.8387V53.6774H61.9355ZM56.7742 16.5161C58.4813 16.5161 59.871 17.9057 59.871 19.6129V53.6774H57.8064V20.6452C57.8064 19.5066 56.8805 18.5806 55.7419 18.5806H53.0685C53.2676 17.9118 53.4113 17.2213 53.5121 16.5161H56.7742ZM27.4385 10.6583L38.3947 15.2238L42.1462 26.4763C41.2077 26.7046 40.2334 26.8387 39.2258 26.8387C32.3952 26.8387 26.8387 21.2823 26.8387 14.4516C26.8387 13.128 27.0524 11.8543 27.4385 10.6583ZM44.1074 25.8322L40.4068 14.7303L48.6749 6.46169C50.504 8.62046 51.6129 11.4073 51.6129 14.4516C51.6129 19.5489 48.5161 23.934 44.1074 25.8322ZM39.2258 2.06452C42.2702 2.06452 45.057 3.17339 47.2167 5.00151L38.9854 13.2324L28.2384 8.75554C30.3039 4.78579 34.4496 2.06452 39.2258 2.06452ZM4.12903 19.6129C4.12903 17.9057 5.51865 16.5161 7.22581 16.5161H24.9395C25.0403 17.2213 25.183 17.9118 25.3831 18.5806H8.25806C7.11946 18.5806 6.19355 19.5066 6.19355 20.6452V53.6774H4.12903V19.6129ZM61.9355 58.8387C61.9355 60.5459 60.5459 61.9355 58.8387 61.9355H5.16129C3.45413 61.9355 2.06452 60.5459 2.06452 58.8387V55.7419H23.3311C24.8155 57.0766 26.7147 57.8064 28.7268 57.8064H35.2742C37.2863 57.8064 39.1855 57.0766 40.6699 55.7419H53.6774V53.6774H39.8306L39.5282 53.9798C38.3916 55.1164 36.8815 55.7419 35.2732 55.7419H28.7258C27.1184 55.7419 25.6074 55.1164 24.4708 53.9798L24.1694 53.6774H8.25806V20.6452H26.1885C28.5141 25.5197 33.4753 28.9032 39.2258 28.9032C44.9763 28.9032 49.9375 25.5197 52.2631 20.6452H55.7419V55.7419H61.9355V58.8387Z" fill="#1A32DC"/>
<path d="M50.5806 43.3549C49.9471 43.3549 49.3574 43.5479 48.8659 43.876L45.2646 41.1759C45.3563 40.8836 45.4194 40.5792 45.4194 40.2581C45.4194 38.5509 44.0297 37.1613 42.3226 37.1613C40.6154 37.1613 39.2258 38.5509 39.2258 40.2581C39.2258 40.6134 39.2979 40.9496 39.4083 41.2677L33.627 45.8932C33.1532 45.5978 32.5988 45.4194 32 45.4194C31.3054 45.4194 30.6704 45.6578 30.1532 46.0449L25.7021 43.0771C25.7641 42.8347 25.8065 42.5847 25.8065 42.3226C25.8065 40.6154 24.4168 39.2258 22.7097 39.2258C21.0025 39.2258 19.6129 40.6154 19.6129 42.3226C19.6129 42.5847 19.6552 42.8347 19.7172 43.0771L15.2661 46.0449C14.749 45.6568 14.1139 45.4194 13.4194 45.4194C11.7122 45.4194 10.3226 46.809 10.3226 48.5162C10.3226 50.2233 11.7122 51.6129 13.4194 51.6129C15.1265 51.6129 16.5161 50.2233 16.5161 48.5162C16.5161 48.2541 16.4738 48.0041 16.4118 47.7616L20.8629 44.7939C21.38 45.182 22.0151 45.4194 22.7097 45.4194C23.4042 45.4194 24.0393 45.182 24.5565 44.7939L29.0076 47.7616C28.9456 48.0041 28.9032 48.2551 28.9032 48.5162C28.9032 50.2233 30.2928 51.6129 32 51.6129C33.7072 51.6129 35.0968 50.2233 35.0968 48.5162C35.0968 48.1608 35.0247 47.8246 34.9143 47.5066L40.6956 42.8811C41.1694 43.1764 41.7238 43.3549 42.3226 43.3549C42.9561 43.3549 43.5459 43.1618 44.0373 42.8337L47.6386 45.5338C47.5469 45.8261 47.4839 46.1306 47.4839 46.4516C47.4839 48.1588 48.8735 49.5484 50.5806 49.5484C52.2878 49.5484 53.6774 48.1588 53.6774 46.4516C53.6774 44.7445 52.2878 43.3549 50.5806 43.3549ZM13.4194 49.5484C12.8508 49.5484 12.3871 49.0847 12.3871 48.5162C12.3871 47.9476 12.8508 47.4839 13.4194 47.4839C13.9879 47.4839 14.4516 47.9476 14.4516 48.5162C14.4516 49.0847 13.9879 49.5484 13.4194 49.5484ZM22.7097 43.3549C22.1411 43.3549 21.6774 42.8912 21.6774 42.3226C21.6774 41.7541 22.1411 41.2903 22.7097 41.2903C23.2782 41.2903 23.7419 41.7541 23.7419 42.3226C23.7419 42.8912 23.2782 43.3549 22.7097 43.3549ZM32 49.5484C31.4314 49.5484 30.9677 49.0847 30.9677 48.5162C30.9677 47.9476 31.4314 47.4839 32 47.4839C32.5685 47.4839 33.0323 47.9476 33.0323 48.5162C33.0323 49.0847 32.5685 49.5484 32 49.5484ZM42.3226 41.2903C41.754 41.2903 41.2903 40.8266 41.2903 40.2581C41.2903 39.6895 41.754 39.2258 42.3226 39.2258C42.8911 39.2258 43.3548 39.6895 43.3548 40.2581C43.3548 40.8266 42.8911 41.2903 42.3226 41.2903ZM50.5806 47.4839C50.0121 47.4839 49.5484 47.0202 49.5484 46.4516C49.5484 45.8831 50.0121 45.4194 50.5806 45.4194C51.1492 45.4194 51.6129 45.8831 51.6129 46.4516C51.6129 47.0202 51.1492 47.4839 50.5806 47.4839Z" fill="#1A32DC"/>
<path d="M26.8387 22.7097H10.3226V37.1613H26.8387V22.7097ZM24.7742 35.0968H12.3871V24.7742H24.7742V35.0968Z" fill="#1A32DC"/>
<path d="M14.4516 26.8387H22.7097V28.9032H14.4516V26.8387Z" fill="#1A32DC"/>
<path d="M14.4516 30.9677H22.7097V33.0322H14.4516V30.9677Z" fill="#1A32DC"/>
<path d="M28.9032 33.0322H30.9677V35.0967H28.9032V33.0322Z" fill="#1A32DC"/>
<path d="M33.0323 33.0322H53.6774V35.0967H33.0323V33.0322Z" fill="#1A32DC"/>
</svg>
