<svg width="64" height="64" viewBox="0 0 64 64" fill="none" xmlns="http://www.w3.org/2000/svg">
<g clip-path="url(#clip0)">
<path d="M52.4329 31.4172C53.0761 31.4172 53.5975 30.8957 53.5975 30.2525C53.5975 29.6093 53.0761 29.0879 52.4329 29.0879C51.7897 29.0879 51.2682 29.6093 51.2682 30.2525C51.2682 30.8957 51.7897 31.4172 52.4329 31.4172Z" fill="#1A32DC"/>
<path d="M10.5061 31.4172C11.1494 31.4172 11.6708 30.8957 11.6708 30.2525C11.6708 29.6093 11.1494 29.0879 10.5061 29.0879C9.86293 29.0879 9.34151 29.6093 9.34151 30.2525C9.34151 30.8957 9.86293 31.4172 10.5061 31.4172Z" fill="#1A32DC"/>
<path d="M14 34.911C14.6432 34.911 15.1647 34.3896 15.1647 33.7464C15.1647 33.1032 14.6432 32.5818 14 32.5818C13.3568 32.5818 12.8354 33.1032 12.8354 33.7464C12.8354 34.3896 13.3568 34.911 14 34.911Z" fill="#1A32DC"/>
<path d="M20.9878 34.911C21.631 34.911 22.1525 34.3896 22.1525 33.7464C22.1525 33.1032 21.631 32.5818 20.9878 32.5818C20.3446 32.5818 19.8232 33.1032 19.8232 33.7464C19.8232 34.3896 20.3446 34.911 20.9878 34.911Z" fill="#1A32DC"/>
<path d="M17.4939 38.4049C18.1371 38.4049 18.6586 37.8835 18.6586 37.2403C18.6586 36.5971 18.1371 36.0757 17.4939 36.0757C16.8507 36.0757 16.3293 36.5971 16.3293 37.2403C16.3293 37.8835 16.8507 38.4049 17.4939 38.4049Z" fill="#1A32DC"/>
<path d="M24.4817 38.4049C25.1249 38.4049 25.6464 37.8835 25.6464 37.2403C25.6464 36.5971 25.1249 36.0757 24.4817 36.0757C23.8385 36.0757 23.3171 36.5971 23.3171 37.2403C23.3171 37.8835 23.8385 38.4049 24.4817 38.4049Z" fill="#1A32DC"/>
<path d="M27.9756 41.8988C28.6188 41.8988 29.1402 41.3774 29.1402 40.7342C29.1402 40.091 28.6188 39.5696 27.9756 39.5696C27.3324 39.5696 26.811 40.091 26.811 40.7342C26.811 41.3774 27.3324 41.8988 27.9756 41.8988Z" fill="#1A32DC"/>
<path d="M34.9634 41.8988C35.6066 41.8988 36.128 41.3774 36.128 40.7342C36.128 40.091 35.6066 39.5696 34.9634 39.5696C34.3202 39.5696 33.7988 40.091 33.7988 40.7342C33.7988 41.3774 34.3202 41.8988 34.9634 41.8988Z" fill="#1A32DC"/>
<path d="M38.4573 38.4049C39.1005 38.4049 39.6219 37.8835 39.6219 37.2403C39.6219 36.5971 39.1005 36.0757 38.4573 36.0757C37.8141 36.0757 37.2927 36.5971 37.2927 37.2403C37.2927 37.8835 37.8141 38.4049 38.4573 38.4049Z" fill="#1A32DC"/>
<path d="M31.4695 45.3926C32.1127 45.3926 32.6341 44.8712 32.6341 44.228C32.6341 43.5848 32.1127 43.0634 31.4695 43.0634C30.8263 43.0634 30.3049 43.5848 30.3049 44.228C30.3049 44.8712 30.8263 45.3926 31.4695 45.3926Z" fill="#1A32DC"/>
<path d="M41.9512 34.911C42.5944 34.911 43.1158 34.3896 43.1158 33.7464C43.1158 33.1032 42.5944 32.5818 41.9512 32.5818C41.308 32.5818 40.7866 33.1032 40.7866 33.7464C40.7866 34.3896 41.308 34.911 41.9512 34.911Z" fill="#1A32DC"/>
<path d="M48.939 34.911C49.5822 34.911 50.1036 34.3896 50.1036 33.7464C50.1036 33.1032 49.5822 32.5818 48.939 32.5818C48.2958 32.5818 47.7744 33.1032 47.7744 33.7464C47.7744 34.3896 48.2958 34.911 48.939 34.911Z" fill="#1A32DC"/>
<path d="M45.4451 38.4049C46.0883 38.4049 46.6097 37.8835 46.6097 37.2403C46.6097 36.5971 46.0883 36.0757 45.4451 36.0757C44.8019 36.0757 44.2805 36.5971 44.2805 37.2403C44.2805 37.8835 44.8019 38.4049 45.4451 38.4049Z" fill="#1A32DC"/>
<path d="M53.0594 38.1952L64 31.9447L52.7543 25.559L64 19.1337L32.0006 0.961975L0 19.1337L11.2457 25.559L0 31.9447L11.2457 38.3699L0 44.7556L32.0006 63.038L64.0012 44.7556L52.7555 38.3699L52.8382 38.3222C52.9197 38.2919 52.9872 38.243 53.0594 38.1952ZM32.0006 3.63946L59.2949 19.1395L50.4006 24.222L32.0017 34.734L4.70628 19.1395L32.0006 3.63946ZM12.9612 27.2629C13.1499 27.6507 13.54 27.9232 14 27.9232C14.3145 27.9232 14.5963 27.7963 14.806 27.5936L17.4404 29.0983C16.8231 29.1274 16.3293 29.6282 16.3293 30.2525C16.3293 30.8953 16.8511 31.4171 17.4939 31.4171C18.1368 31.4171 18.6586 30.8953 18.6586 30.2525C18.6586 30.051 18.5945 29.8716 18.5048 29.7062L30.5355 36.5799C30.4004 36.7697 30.3049 36.9899 30.3049 37.2402C30.3049 37.8831 30.8266 38.4049 31.4695 38.4049C32.1124 38.4049 32.6341 37.8831 32.6341 37.2402C32.6341 37.1809 32.6097 37.1308 32.6004 37.0737L44.3072 30.3852C44.376 30.9629 44.8488 31.4159 45.4451 31.4159C46.088 31.4159 46.6097 30.8942 46.6097 30.2513C46.6097 29.8728 46.4176 29.5514 46.1369 29.3394L48.7014 27.8743C48.7806 27.8918 48.8551 27.922 48.939 27.922C49.4561 27.922 49.8788 27.5796 50.0314 27.1138L50.4041 26.9007L59.2949 31.9493L56.9854 33.2689C56.8026 32.8647 56.3996 32.5806 55.9279 32.5806C55.2851 32.5806 54.7633 33.1023 54.7633 33.7452C54.7633 33.9967 54.86 34.2169 54.9951 34.4067L50.4006 37.0318L42.9609 41.2827C43.0518 41.1173 43.117 40.9356 43.117 40.733C43.117 40.0901 42.5952 39.5683 41.9524 39.5683C41.3095 39.5683 40.7877 40.0901 40.7877 40.733C40.7877 41.3584 41.2839 41.8592 41.9023 41.8871L39.2667 43.393C39.0571 43.1903 38.7741 43.0622 38.4585 43.0622C37.8156 43.0622 37.2938 43.584 37.2938 44.2269C37.2938 44.32 37.3264 44.4027 37.3474 44.4901L32.0017 47.5437L25.5765 43.8728C25.4251 43.4058 25.0011 43.0622 24.4829 43.0622C24.3979 43.0622 24.3222 43.0937 24.243 43.1112L21.6796 41.6472C21.9603 41.4341 22.1536 41.1138 22.1536 40.7341C22.1536 40.0913 21.6319 39.5695 20.989 39.5695C20.3927 39.5695 19.9187 40.0249 19.8511 40.6025L8.14194 33.9141C8.15009 33.857 8.17571 33.8058 8.17571 33.7464C8.17571 33.1035 7.65396 32.5817 7.01108 32.5817C6.73273 32.5817 6.48816 32.6924 6.28785 32.8554L4.70511 31.9517L12.9612 27.2629ZM59.2937 44.7614L31.9994 60.3559L4.70628 44.7614L13.5959 39.7128L32.0006 50.2271L50.4041 39.7128L59.2937 44.7614Z" fill="#1A32DC"/>
</g>
<defs>
<clipPath id="clip0">
<rect width="64" height="64" fill="white"/>
</clipPath>
</defs>
</svg>
