<svg width="32" height="32" viewBox="0 0 32 32" fill="none" xmlns="http://www.w3.org/2000/svg">
<g clip-path="url(#clip0)">
<path d="M31.1776 2.9298C30.7216 2.9298 30.3484 3.30294 30.3484 3.75899V25.7671C30.3484 28.0958 28.4551 29.9822 26.1334 29.9822H5.87345C3.5448 29.9822 1.65838 28.0889 1.65838 25.7671V2.0246H25.933V23.3763C25.933 23.8324 26.3061 24.2055 26.7622 24.2055C27.2182 24.2055 27.5914 23.8324 27.5914 23.3763V1.1954C27.5914 0.739348 27.2182 0.366211 26.7622 0.366211H0.829192C0.373137 0.366211 0 0.739348 0 1.1954V25.7602C0 29.001 2.63269 31.6337 5.87345 31.6337H26.1265C29.3672 31.6337 31.9999 29.001 31.9999 25.7602V3.75899C32.0068 3.30294 31.6337 2.9298 31.1776 2.9298Z" fill="white"/>
<path d="M22.7544 6.80633C23.2105 6.80633 23.5836 6.4332 23.5836 5.97714C23.5836 5.52109 23.2105 5.14795 22.7544 5.14795H4.67803C4.22198 5.14795 3.84884 5.52109 3.84884 5.97714C3.84884 6.4332 4.22198 6.80633 4.67803 6.80633H22.7544Z" fill="white"/>
<path d="M22.7544 22.0498H4.67803C4.22198 22.0498 3.84884 22.4229 3.84884 22.879C3.84884 23.3351 4.22198 23.7082 4.67803 23.7082H22.7475C23.2036 23.7082 23.5767 23.3351 23.5767 22.879C23.5767 22.4229 23.2105 22.0498 22.7544 22.0498Z" fill="white"/>
<path d="M22.7544 26.2993H7.54565C7.0896 26.2993 6.71646 26.6725 6.71646 27.1285C6.71646 27.5846 7.0896 27.9577 7.54565 27.9577H22.7544C23.2105 27.9577 23.5836 27.5846 23.5836 27.1285C23.5836 26.6725 23.2105 26.2993 22.7544 26.2993Z" fill="white"/>
<path d="M3.57244 9.70126V18.6704C3.57244 19.1264 3.94558 19.4996 4.40163 19.4996H13.4053C13.8613 19.4996 14.2345 19.1264 14.2345 18.6704V9.70126C14.2345 9.24521 13.8613 8.87207 13.4053 8.87207H4.40163C3.94558 8.87207 3.57244 9.24521 3.57244 9.70126ZM5.23083 10.5305H12.5761V17.8412H5.23083V10.5305Z" fill="white"/>
<path d="M23.1967 9.70166H17.2334C16.7773 9.70166 16.4042 10.0748 16.4042 10.5309C16.4042 10.9869 16.7773 11.36 17.2334 11.36H23.1967C23.6527 11.36 24.0259 10.9869 24.0259 10.5309C24.0259 10.0748 23.6596 9.70166 23.1967 9.70166Z" fill="white"/>
<path d="M23.1967 13.4468H17.2334C16.7773 13.4468 16.4042 13.8199 16.4042 14.276C16.4042 14.732 16.7773 15.1052 17.2334 15.1052H23.1967C23.6527 15.1052 24.0259 14.732 24.0259 14.276C24.0259 13.8199 23.6596 13.4468 23.1967 13.4468Z" fill="white"/>
<path d="M24.0259 18.2559C24.0259 17.7999 23.6527 17.4268 23.1967 17.4268H17.2334C16.7773 17.4268 16.4042 17.7999 16.4042 18.2559C16.4042 18.712 16.7773 19.0851 17.2334 19.0851H23.1967C23.6596 19.0851 24.0259 18.712 24.0259 18.2559Z" fill="white"/>
</g>
<defs>
<clipPath id="clip0">
<rect width="32" height="32" fill="white"/>
</clipPath>
</defs>
</svg>
