<svg width="64" height="64" viewBox="0 0 64 64" fill="none" xmlns="http://www.w3.org/2000/svg">
<path d="M58.4772 53.9813L53.8959 46.3493C51.7839 42.8266 50.6665 38.7946 50.6665 34.6853V27.9999C50.6665 17.7093 42.2905 9.33325 31.9999 9.33325C21.7092 9.33325 13.3332 17.7093 13.3332 27.9999V34.6853C13.3332 38.7946 12.2159 42.8266 10.1039 46.3493L5.52249 53.9813C5.27449 54.3919 5.26911 54.9066 5.50386 55.3226C5.74124 55.7412 6.18649 56 6.66649 56H57.3331C57.8131 56 58.2585 55.7414 58.4957 55.3226C58.7305 54.9065 58.7252 54.3919 58.4772 53.9813ZM9.02124 53.3332L12.3892 47.7199C14.7519 43.7839 15.9999 39.2773 15.9999 34.6853V27.9999C15.9999 19.1759 23.1759 11.9999 31.9999 11.9999C40.8239 11.9999 47.9999 19.1759 47.9999 27.9999V34.6853C47.9999 39.2773 49.2479 43.7839 51.6079 47.7199L54.9785 53.3332H9.02124Z" fill="white"/>
<path d="M32 0C29.0586 0 26.6666 2.392 26.6666 5.33337V10.6667C26.6666 11.4026 27.264 12 28 12C28.736 12 29.3334 11.4026 29.3334 10.6666V5.33337C29.3334 3.86137 30.528 2.66675 32 2.66675C33.472 2.66675 34.6667 3.86137 34.6667 5.33337V10.6667C34.6667 11.4026 35.264 12 36 12C36.736 12 37.3334 11.4026 37.3334 10.6666V5.33337C37.3334 2.392 34.9414 0 32 0Z" fill="white"/>
<path d="M37.7701 53.9906C37.3941 53.3559 36.5807 53.1479 35.9435 53.5132C35.3061 53.8866 35.0928 54.7052 35.4661 55.3398C35.8127 55.9292 36.0021 56.6358 36.0021 57.3318C36.0021 59.5372 34.2075 61.3318 32.0021 61.3318C29.7967 61.3318 28.0021 59.5372 28.0021 57.3318C28.0021 56.6358 28.1915 55.9292 28.5381 55.3398C28.9087 54.7024 28.6955 53.8864 28.0607 53.5132C27.4181 53.1478 26.6073 53.3558 26.2341 53.9906C25.6447 54.9986 25.3327 56.1532 25.3327 57.3319C25.3328 61.0092 28.3221 63.9986 31.9995 63.9986C35.6768 63.9986 38.6661 61.0092 38.6715 57.3319C38.6715 56.1532 38.3595 54.9986 37.7701 53.9906Z" fill="white"/>
</svg>
