<svg width="48" height="48" viewBox="0 0 48 48" fill="none" xmlns="http://www.w3.org/2000/svg">
<path d="M20.8406 18.6364C22.6922 16.628 23.7124 13.9341 23.7124 11.05C23.7124 5.55884 19.7902 0 12.2925 0C8.80318 0 5.85954 1.19847 3.77936 3.46578C1.93674 5.47441 0.922241 8.16776 0.922241 11.05C0.922241 16.5418 4.82783 22.1003 12.2925 22.1003C15.7948 22.1005 18.7513 20.9029 20.8406 18.6364ZM12.2925 5.1379C16.4006 5.1379 18.2715 8.20459 18.2715 11.0539C18.2715 12.6039 17.75 14.0387 16.8021 15.0936C15.7446 16.2719 14.2078 16.8949 12.3591 16.8949C8.14706 16.8949 6.22825 13.8285 6.22825 10.9795C6.22825 8.07225 8.10365 5.1379 12.2925 5.1379Z" fill="#14C314"/>
<path d="M39.5609 4.26276C38.8814 4.27504 37.9537 4.69868 37.4992 5.20391L3.77015 42.7048C3.31582 43.2103 3.63766 43.919 4.31714 43.919H8.7317C9.41117 43.919 10.3379 43.5046 10.7915 42.9986L44.3121 5.5054C44.7655 4.99897 44.7354 4.17504 43.6127 4.17534L39.5609 4.26276Z" fill="#14C314"/>
<path d="M35.8742 26.32C32.4523 26.32 29.5645 27.4963 27.5237 29.7203C25.7162 31.6901 24.7205 34.3327 24.7205 37.1601C24.7205 42.5468 28.5518 48 35.8744 48C39.311 48 42.2104 46.8249 44.2604 44.6017C46.077 42.6314 47.0774 39.9887 47.0774 37.1601C47.0772 31.7734 43.2293 26.32 35.8742 26.32ZM35.9404 43.0256C31.8424 43.0256 29.9753 39.9482 29.9753 37.0904C29.9753 35.534 30.4965 34.0937 31.4436 33.0348C32.4995 31.8531 34.0315 31.2285 35.8744 31.2285C39.9726 31.2285 41.8389 34.3053 41.8389 37.164C41.8389 38.7201 41.3175 40.1607 40.3711 41.2196C39.315 42.401 37.7829 43.0256 35.9404 43.0256Z" fill="#14C314"/>
</svg>
