<svg width="64" height="64" viewBox="0 0 64 64" fill="none" xmlns="http://www.w3.org/2000/svg">
<path d="M49.3344 0H4.001C1.79188 0 0.0010004 1.79087 0.0010004 4V36C0.0010004 38.2091 1.79188 40 4.001 40H21.3344V37.3334H4.001C3.26463 37.3334 2.66763 36.7364 2.66763 36V4C2.66763 3.26363 3.26463 2.66663 4.001 2.66663H49.3344C50.0707 2.66663 50.6677 3.26363 50.6677 4V28H53.3344V4C53.3344 1.79087 51.5435 0 49.3344 0Z" fill="#1A32DC"/>
<path d="M18.6667 38.6666H16.0001V46.6666H18.6667V38.6666Z" fill="#1A32DC"/>
<path d="M9.3335 32C8.59713 32 8.00012 31.403 8.00012 30.6666V28H5.3335V30.6666C5.3335 32.8757 7.12437 34.6666 9.3335 34.6666H12.0001V32H9.3335Z" fill="#1A32DC"/>
<path d="M8.00012 22.6666H5.3335V25.3333H8.00012V22.6666Z" fill="#1A32DC"/>
<path d="M48.7295 28.2426C46.0125 25.5251 42.3271 23.9985 38.4844 23.9986C30.4836 23.999 23.998 30.4851 23.9982 38.4859C23.9986 46.4866 30.4847 52.9722 38.4855 52.972C42.327 52.9719 46.011 51.446 48.7276 48.7299C54.3855 43.073 54.3864 33.9006 48.7295 28.2426ZM38.4775 50.3066C31.9495 50.3044 26.6592 45.0106 26.6615 38.4826C26.6637 31.9546 31.9575 26.6643 38.4855 26.6666C41.6231 26.6581 44.6335 27.9066 46.8441 30.1332C49.0589 32.3505 50.3025 35.3566 50.3015 38.4906C50.2992 45.0186 45.0055 50.3089 38.4775 50.3066Z" fill="#1A32DC"/>
<path d="M63.6095 58L55.2401 49.6334C54.9901 49.3834 54.651 49.2427 54.2975 49.2427C53.9439 49.2429 53.6049 49.3834 53.3549 49.6334L49.6349 53.3534C49.1144 53.874 49.1144 54.718 49.6349 55.2387L58.0043 63.6094C58.2543 63.8595 58.5934 64 58.9469 64C59.301 63.9989 59.6403 63.8569 59.8895 63.6054L63.6095 59.8854C64.13 59.3646 64.13 58.5206 63.6095 58ZM58.9468 60.7814L52.4628 54.296L54.2974 52.4614L60.7814 58.9468L58.9468 60.7814Z" fill="#1A32DC"/>
<path d="M48.7293 46.8429L46.8437 48.7285L51.4936 53.3784L53.3792 51.4928L48.7293 46.8429Z" fill="#1A32DC"/>
<path d="M38.6668 29.3334V32C42.3469 32.0044 45.329 34.9866 45.3334 38.6666H48C47.9943 33.5145 43.819 29.3392 38.6668 29.3334Z" fill="#1A32DC"/>
<path d="M24.0001 45.3334H13.3335V48H24.0001V45.3334Z" fill="#1A32DC"/>
<path d="M20.0001 5.33337C17.791 5.33337 16.0001 7.12425 16.0001 9.33337C16.0001 11.5425 17.791 13.3334 20.0001 13.3334C22.2093 13.3334 24.0001 11.5425 24.0001 9.33337C24.0001 7.12425 22.2093 5.33337 20.0001 5.33337ZM20.0001 10.6666C19.2638 10.6666 18.6667 10.0696 18.6667 9.33325C18.6667 8.59687 19.2638 7.99987 20.0001 7.99987C20.7365 7.99987 21.3335 8.59687 21.3335 9.33325C21.3335 10.0697 20.7365 10.6666 20.0001 10.6666Z" fill="#1A32DC"/>
<path d="M29.3335 14.6666C27.1244 14.6666 25.3335 16.4575 25.3335 18.6666C25.3335 20.8757 27.1244 22.6666 29.3335 22.6666C31.5426 22.6666 33.3335 20.8757 33.3335 18.6666C33.3335 16.4575 31.5426 14.6666 29.3335 14.6666ZM29.3335 20C28.5971 20 28.0001 19.403 28.0001 18.6666C28.0001 17.9302 28.5971 17.3332 29.3335 17.3332C30.0699 17.3332 30.6669 17.9302 30.6669 18.6666C30.6668 19.403 30.0699 20 29.3335 20Z" fill="#1A32DC"/>
<path d="M17.7238 9.72433L11.0573 16.3909L12.9428 18.2764L19.6094 11.6099L17.7238 9.72433Z" fill="#1A32DC"/>
<path d="M22.2704 9.72771L20.3848 11.6133L27.0514 18.2798L28.937 16.3943L22.2704 9.72771Z" fill="#1A32DC"/>
<path d="M38.6668 5.33337C36.4576 5.33337 34.6668 7.12425 34.6668 9.33337C34.6668 11.5425 36.4576 13.3334 38.6668 13.3334C40.8759 13.3334 42.6668 11.5425 42.6668 9.33337C42.6669 7.12425 40.876 5.33337 38.6668 5.33337ZM38.6668 10.6666C37.9304 10.6666 37.3334 10.0696 37.3334 9.33325C37.3334 8.59687 37.9304 7.99987 38.6668 7.99987C39.4031 7.99987 40.0001 8.59687 40.0001 9.33325C40.0001 10.0697 39.4031 10.6666 38.6668 10.6666Z" fill="#1A32DC"/>
<path d="M36.3898 9.72903L29.7232 16.3956L31.6088 18.2811L38.2753 11.6146L36.3898 9.72903Z" fill="#1A32DC"/>
</svg>
