<svg width="64" height="64" viewBox="0 0 64 64" fill="none" xmlns="http://www.w3.org/2000/svg">
<path d="M58.864 16.4735C58.7874 14.7898 58.7874 13.1827 58.7874 11.5755C58.7874 10.2744 57.7925 9.27952 56.4915 9.27952C46.925 9.27952 39.6544 6.52436 33.6084 0.63139C32.69 -0.210463 31.3124 -0.210463 30.394 0.63139C24.348 6.52436 17.0774 9.27952 7.51091 9.27952C6.20986 9.27952 5.21495 10.2744 5.21495 11.5755C5.21495 13.1827 5.21495 14.7898 5.13841 16.4735C4.83228 32.5453 4.37309 54.5865 31.2359 63.8469L32.0012 64L32.7665 63.8469C59.5527 54.5865 59.1701 32.6218 58.864 16.4735ZM30.1644 38.7444C29.7052 39.1271 29.1695 39.3566 28.5572 39.3566H28.4807C27.8685 39.3566 27.2562 39.0505 26.8735 38.5913L19.756 30.7085L23.2 27.6472L28.7868 33.8463L41.185 22.0604L44.3229 25.4278L30.1644 38.7444Z" fill="#0F5AE0"/>
</svg>
