<svg width="64" height="64" viewBox="0 0 64 64" fill="none" xmlns="http://www.w3.org/2000/svg">
<path d="M36.9375 5.72412C36.6875 5.47412 36.349 5.3335 35.9948 5.3335H13.3334C10.3919 5.3335 8 7.72537 8 10.6667V58.6667C8 61.6082 10.3919 64.0001 13.3334 64.0001H45.3334C48.2747 64.0001 50.6668 61.6082 50.6668 58.6667V20.0001C50.6668 19.646 50.5261 19.3074 50.2761 19.0574L36.9375 5.72412ZM48 58.6667C48 60.1367 46.8034 61.3334 45.3334 61.3334H13.3334C11.8634 61.3334 10.6667 60.1367 10.6667 58.6667V10.6667C10.6667 9.19675 11.8634 8.00012 13.3334 8.00012H35.4427L48 20.5522V58.6667Z" fill="#0F5AE0"/>
<path d="M16 30.6665V51.9999C16 54.2056 17.7943 55.9999 20 55.9999H38.6666C40.8724 55.9999 42.6666 54.2056 42.6666 51.9999V30.6665C42.6666 28.4608 40.8724 26.6665 38.6666 26.6665H20C17.7943 26.6665 16 28.4609 16 30.6665ZM24 53.3333H20C19.2644 53.3333 18.6666 52.7356 18.6666 51.9999V47.9999H24V53.3333ZM32 53.3333H26.6666V47.9999H32V53.3333ZM40 51.9999C40 52.7355 39.4024 53.3333 38.6666 53.3333H34.6666V46.6666C34.6666 45.9296 34.0702 45.3333 33.3332 45.3333H18.6666V37.3333H40V51.9999ZM34.6666 29.3333H38.6666C39.4023 29.3333 40 29.9309 40 30.6666V34.6666H34.6666V29.3333ZM26.6666 29.3333H32V34.6666H26.6666V29.3333ZM24 34.6665H18.6666V30.6665C18.6666 29.9309 19.2643 29.3331 20 29.3331H24V34.6665Z" fill="#0F5AE0"/>
<path d="M55.6094 13.724L42.2709 0.390625C42.0209 0.140625 41.6824 0 41.3281 0H17.3334C16.5964 0 16 0.596375 16 1.33337C16 2.07037 16.5964 2.66675 17.3334 2.66675H40.7761L53.3334 15.2188V54.625C53.3334 55.362 53.9298 55.9584 54.6668 55.9584C55.4038 55.9584 56.0001 55.362 56.0001 54.625V14.6666C56 14.3125 55.8594 13.974 55.6094 13.724Z" fill="#0F5AE0"/>
</svg>
