<svg width="48" height="48" viewBox="0 0 48 48" fill="none" xmlns="http://www.w3.org/2000/svg">
<path d="M7.50941 38.025C7.83753 38.25 9.10316 38.8781 10.1719 37.5281L17.4094 26.9531L25.0688 34.3406C25.4719 34.725 26.025 34.9313 26.5875 34.8656C27.1407 34.8094 27.6469 34.5188 27.975 34.0594L40.6782 15.8438L41.1375 21.9375C41.25 23.4844 42.7032 23.7375 43.1907 23.7C44.2407 23.6156 45.0375 22.7063 44.9532 21.6469L44.1469 10.9313C44.0719 9.88126 43.1532 9.08438 42.0938 9.16876L31.3782 9.97501C30.3282 10.05 29.5313 10.9688 29.6157 12.0281C29.6907 13.0781 30.6 13.8656 31.6688 13.7906L37.7625 13.3313L26.1188 30.0188L18.4407 22.6125C18.0375 22.2188 17.475 22.0219 16.9219 22.0875C16.3594 22.1438 15.8532 22.4438 15.5344 22.9125L7.01253 35.3625C6.41253 36.2344 6.63753 37.425 7.50941 38.025Z" fill="#FFA500"/>
<path d="M45.0563 43.1438H4.85625V2.94375C4.85625 1.88437 4.00312 1.03125 2.94375 1.03125C1.88437 1.03125 1.03125 1.88437 1.03125 2.94375V45.0563C1.03125 46.1156 1.88437 46.9688 2.94375 46.9688H45.0563C46.1156 46.9688 46.9688 46.1156 46.9688 45.0563C46.9688 43.9969 46.1156 43.1438 45.0563 43.1438Z" fill="#FFA500"/>
</svg>
