<svg width="512" height="512" viewBox="0 0 512 512" fill="none" xmlns="http://www.w3.org/2000/svg">
<path d="M255.997 511.997C397.38 511.997 511.994 397.383 511.994 256C511.994 114.617 397.38 0.00305176 255.997 0.00305176C114.614 0.00305176 0 114.617 0 256C0 397.383 114.614 511.997 255.997 511.997Z" fill="#29A6D9"/>
<path d="M231.138 293.3L346.829 380.647L405.228 131.36L106.771 248.759L197.588 278.84L363.331 167.664L231.138 293.3Z" fill="white"/>
<path d="M197.588 278.84L222.461 368.344L231.138 293.3L363.331 167.664L197.588 278.84Z" fill="#D2D2D7"/>
<path d="M268.738 321.688L222.461 368.344L231.138 293.3L268.738 321.688Z" fill="#B9B9BE"/>
</svg>
