<svg width="64" height="64" viewBox="0 0 64 64" fill="none" xmlns="http://www.w3.org/2000/svg">
<g opacity="0.5">
<path d="M15.3745 15.0573C14.9007 15.0573 14.6215 15.3003 14.4513 15.7739C13.8563 17.4622 13.2976 19.4055 12.6903 21.118L10.8928 15.762C10.735 15.2883 10.4069 15.0454 9.9211 15.0454C9.27735 15.0454 8.94948 15.3734 8.94948 16.017C8.94948 16.1384 8.97373 16.272 9.0101 16.4057L11.5851 23.5473C11.8158 24.191 12.1802 24.5189 12.6782 24.5189C13.2127 24.5189 13.6012 24.1666 13.8563 23.45L16.3462 16.4298C16.3947 16.3325 16.4312 16.199 16.4312 16.0775C16.4312 15.5552 15.8725 15.0573 15.3745 15.0573Z" fill="#0F5AE0"/>
<path d="M22.2733 20.3894C23.2571 19.7578 23.7064 18.8226 23.7064 17.8996C23.7064 16.4542 22.5771 15.0696 20.5365 15.0696H18.1195C17.33 15.0696 16.9171 15.3853 16.9171 16.0777H16.917V23.4502C16.917 24.1668 17.245 24.5191 17.9008 24.5191C18.5446 24.5191 18.8603 24.1668 18.8603 23.4502V20.8874H20.2692L21.7996 23.9967C22.0182 24.4218 22.3462 24.5311 22.6862 24.5311C23.3178 24.5311 23.6093 24.1423 23.6093 23.5958C23.6093 23.3894 23.5364 23.1708 23.4514 22.9643L22.2733 20.3894ZM20.6216 18.9562H18.8605V17.013H20.6216C21.3867 17.013 21.7147 17.4502 21.7147 17.8996C21.7147 18.4097 21.3017 18.9562 20.6216 18.9562Z" fill="#0F5AE0"/>
<path d="M63.9754 40.5868L62.9325 33.6846C62.7695 32.6057 61.8591 31.8226 60.768 31.8226H57.605C56.4303 29.0058 53.7369 26.9959 50.5761 26.7852C50.4439 26.7763 50.3116 26.7676 50.1793 26.7587C43.3963 26.3064 36.3369 25.2363 29.5468 25.6891C29.3243 25.7039 29.1019 25.7187 28.8794 25.7336C29.6322 24.0508 30.0518 22.1878 30.0518 20.2283C30.0518 12.7681 23.9824 6.69873 16.5223 6.69873C11.3947 6.69873 6.76811 9.54172 4.44799 14.1183C4.21311 14.5817 4.39824 15.1478 4.86173 15.3827C5.32498 15.6176 5.89123 15.4325 6.12611 14.969C8.12398 11.0282 12.1075 8.5801 16.5223 8.5801C22.9451 8.5801 28.1704 13.8053 28.1704 20.2282C28.1704 22.2772 27.6381 24.2039 26.7052 25.8784C22.1719 26.1807 17.6386 26.4828 13.1053 26.7851C11.3557 26.9017 9.74997 27.5708 8.46498 28.6217C6.44298 26.6833 5.10973 24.0252 4.90273 21.0493C4.86661 20.531 4.41724 20.1403 3.89899 20.1762C3.38074 20.2123 2.98974 20.6616 3.02586 21.18C3.25886 24.5309 4.72061 27.6486 7.1456 29.9803C6.71423 30.5412 6.35311 31.1592 6.07648 31.8226H3.23199C2.14087 31.8226 1.23062 32.6057 1.06749 33.6846L0.0246196 40.5868C-0.0706301 41.218 0.113369 41.8574 0.529744 42.3413C0.945993 42.8252 1.55087 43.1027 2.18912 43.1027H4.34674L3.71636 48.0615C3.41924 50.3981 4.14199 52.7521 5.69898 54.5196C7.25598 56.2871 9.49997 57.3009 11.8555 57.3009H18.398C19.9803 57.3009 21.5406 57.0374 23.0353 56.5178L31.5139 53.5704H32.1673L40.6459 56.5178C41.1368 56.6885 41.6728 56.429 41.8434 55.9381C42.014 55.4474 41.7545 54.9113 41.2638 54.7406L32.6351 51.741C32.5357 51.7065 32.4313 51.6889 32.3262 51.6889H31.3551C31.2499 51.6889 31.1454 51.7065 31.0462 51.741L22.4176 54.7406C21.122 55.191 19.7696 55.4194 18.398 55.4194H11.8555C10.0401 55.4194 8.31073 54.6381 7.11073 53.2759C5.91073 51.9138 5.35373 50.0996 5.58273 48.2988L6.34636 42.2914L7.6501 32.9833C8.44648 30.5848 10.6333 28.8354 13.2303 28.6623C18.6282 28.3024 24.0261 27.9426 29.4238 27.5828C36.2954 27.1247 43.4854 28.1981 50.3964 28.6587C50.4145 28.6599 50.4328 28.6611 50.4509 28.6623C53.4614 28.8631 55.9225 31.1811 56.303 34.1742L58.0985 48.2986C58.3274 50.0995 57.7705 51.9136 56.5705 53.2758C55.3705 54.638 53.6411 55.4193 51.8258 55.4193H47.7625C47.243 55.4193 46.8218 55.8405 46.8218 56.36C46.8218 56.8795 47.2429 57.3008 47.7625 57.3008H51.826C54.1815 57.3008 56.4255 56.287 57.9825 54.5195C59.5395 52.752 60.2622 50.3981 59.9651 48.0614L59.3347 43.1025H61.811C62.4492 43.1025 63.0541 42.825 63.4704 42.3412C63.8866 41.8575 64.0706 41.218 63.9754 40.5868ZM5.51211 33.937L4.58611 41.2213H2.18924V41.2214C2.06649 41.2214 1.99049 41.1544 1.95612 41.1144C1.92174 41.0745 1.86674 40.9893 1.88512 40.8679L2.92799 33.9657C2.95086 33.8141 3.07874 33.7041 3.23211 33.7041H5.54698C5.53486 33.7816 5.52198 33.8588 5.51211 33.937ZM62.044 41.1144C62.0096 41.1544 61.9336 41.2214 61.8109 41.2214H59.4035L58.3505 33.7042H60.768C60.9212 33.7042 61.0491 33.8142 61.0721 33.9658L62.115 40.8679C62.1334 40.9893 62.0784 41.0744 62.044 41.1144Z" fill="#0F5AE0"/>
<path d="M35.3038 31.8228H27.4066C26.8869 31.8228 26.4658 32.2439 26.4658 32.7635C26.4658 33.2831 26.8871 33.7043 27.4066 33.7043H35.3038C35.8233 33.7043 36.2446 33.2831 36.2446 32.7635C36.2446 32.2439 35.8233 31.8228 35.3038 31.8228Z" fill="#0F5AE0"/>
<path d="M47.7114 37.7111C47.374 37.3161 46.7802 37.2693 46.3852 37.6068L41.8339 41.4942C41.4389 41.8316 41.3922 42.4254 41.7297 42.8204C41.9158 43.0383 42.1798 43.1502 42.4454 43.1502C42.6615 43.1502 42.8788 43.0761 43.0559 42.9247L47.6072 39.0373C48.0022 38.6999 48.0489 38.1061 47.7114 37.7111Z" fill="#0F5AE0"/>
<path d="M52.4844 39.5182C52.1471 39.1232 51.5533 39.0765 51.1582 39.414L39.7914 49.1231C39.3964 49.4604 39.3497 50.0543 39.6872 50.4493C39.8733 50.6672 40.1373 50.7791 40.4029 50.7791C40.6191 50.7791 40.8363 50.7049 41.0134 50.5536L52.3802 40.8445C52.7752 40.5071 52.8219 39.9132 52.4844 39.5182Z" fill="#0F5AE0"/>
<path d="M19.5131 37.7111C19.1757 37.3161 18.582 37.2693 18.1868 37.6068L13.6357 41.4942C13.2407 41.8316 13.194 42.4254 13.5315 42.8204C13.7176 43.0383 13.9816 43.1502 14.2472 43.1502C14.4633 43.1502 14.6806 43.0761 14.8577 42.9247L19.4088 39.0373C19.8038 38.6999 19.8506 38.1061 19.5131 37.7111Z" fill="#0F5AE0"/>
<path d="M24.2862 39.5182C23.9488 39.1232 23.355 39.0765 22.96 39.414L11.5932 49.1231C11.1982 49.4604 11.1515 50.0543 11.489 50.4493C11.6751 50.6672 11.9391 50.7791 12.2047 50.7791C12.4209 50.7791 12.6381 50.7049 12.8152 50.5536L24.182 40.8445C24.577 40.5071 24.6237 39.9132 24.2862 39.5182Z" fill="#0F5AE0"/>
</g>
</svg>
