<svg width="64" height="64" viewBox="0 0 64 64" fill="none" xmlns="http://www.w3.org/2000/svg">
<g clip-path="url(#clip0)">
<path d="M59.6267 55.5638C60.3815 54.6302 60.7953 53.4672 60.8 52.2667V50.1334C60.8 47.1879 58.4121 44.8 55.4667 44.8C52.5212 44.8 50.1333 47.1879 50.1333 50.1334V52.2667C50.138 53.4672 50.5519 54.6302 51.3067 55.5638C49.9823 55.81 48.8005 56.5496 48 57.6331C47.1995 56.5496 46.0177 55.81 44.6933 55.5638C45.4481 54.6302 45.862 53.4672 45.8667 52.2667V50.1334C45.8667 47.1879 43.4788 44.8 40.5333 44.8C37.5879 44.8 35.2 47.1879 35.2 50.1334V52.2667C35.2047 53.4672 35.6185 54.6302 36.3733 55.5638C35.0489 55.81 33.8672 56.5496 33.0667 57.6331C32.2661 56.5496 31.0844 55.81 29.76 55.5638C30.5148 54.6302 30.9287 53.4672 30.9333 52.2667V50.1334C30.9333 47.1879 28.5455 44.8 25.6 44.8C22.6545 44.8 20.2667 47.1879 20.2667 50.1334V52.2667C20.2713 53.4672 20.6852 54.6302 21.44 55.5638C18.9105 56.0266 17.0715 58.2286 17.0667 60.8V64H19.2V60.8C19.2 59.0327 20.6327 57.6 22.4 57.6H28.8C30.5673 57.6 32 59.0327 32 60.8V64H34.1333V60.8C34.1333 59.0327 35.566 57.6 37.3333 57.6H43.7333C45.5007 57.6 46.9333 59.0327 46.9333 60.8V64H49.0667V60.8C49.0667 59.0327 50.4993 57.6 52.2667 57.6H58.6667C60.434 57.6 61.8667 59.0327 61.8667 60.8V64H64V60.8C63.9952 58.2286 62.1561 56.0266 59.6267 55.5638ZM28.8 52.2667C28.8 54.034 27.3673 55.4667 25.6 55.4667C23.8327 55.4667 22.4 54.034 22.4 52.2667V50.1334C22.4 48.366 23.8327 46.9334 25.6 46.9334C27.3673 46.9334 28.8 48.366 28.8 50.1334V52.2667ZM43.7333 52.2667C43.7333 54.034 42.3007 55.4667 40.5333 55.4667C38.766 55.4667 37.3333 54.034 37.3333 52.2667V50.1334C37.3333 48.366 38.766 46.9334 40.5333 46.9334C42.3007 46.9334 43.7333 48.366 43.7333 50.1334V52.2667ZM58.6667 52.2667C58.6667 54.034 57.234 55.4667 55.4667 55.4667C53.6993 55.4667 52.2667 54.034 52.2667 52.2667V50.1334C52.2667 48.366 53.6993 46.9334 55.4667 46.9334C57.234 46.9334 58.6667 48.366 58.6667 50.1334V52.2667Z" fill="white"/>
<path d="M25.9901 21.4078C25.8659 21.3587 25.7336 21.3335 25.6 21.3334H21.3333C20.8848 21.3333 20.4841 21.6138 20.3307 22.0353L19.2 25.1446L19.1627 25.0433C18.3485 22.8195 16.2348 21.3387 13.8667 21.3334H13.8389C14.5448 20.4157 14.9295 19.2913 14.9333 18.1334V16.0001C14.9333 13.0546 12.5455 10.6667 9.6 10.6667C6.65453 10.6667 4.26667 13.0546 4.26667 16.0001V18.1334C4.27053 19.2913 4.6552 20.4157 5.36107 21.3334H5.33333C2.38933 21.3369 0.00346667 23.7227 0 26.6667V39.4667C0 40.0558 0.4776 40.5334 1.06667 40.5334H4.26667V50.8801L2.31253 53.8081C1.9856 54.2981 2.11773 54.9605 2.60787 55.2874C2.7832 55.4043 2.9892 55.4667 3.2 55.4667H16C16.5891 55.4669 17.0668 54.9893 17.0668 54.4002C17.0668 54.1894 17.0044 53.9834 16.8875 53.8081L14.9333 50.8801V31.1851L15.2021 31.7185C16.28 33.8727 18.9 34.7454 21.0543 33.6675C22.0089 33.1899 22.7552 32.3787 23.152 31.3878L24.8843 27.0582L26.5909 22.7915C26.8072 22.2435 26.5381 21.6241 25.9901 21.4078ZM6.4 16.0001C6.4 14.2327 7.83267 12.8001 9.6 12.8001C11.3673 12.8001 12.8 14.2327 12.8 16.0001V18.1334C12.8 19.9007 11.3673 21.3334 9.6 21.3334C7.83267 21.3334 6.4 19.9007 6.4 18.1334V16.0001ZM4.26667 38.4001H2.13333V36.2667H4.26667V38.4001ZM10.6667 53.3334V40.5334H8.53333V53.3334H5.1936L6.2208 51.7921C6.33733 51.6166 6.3996 51.4107 6.4 51.2001V38.4001H12.8V51.2001C12.8004 51.4107 12.8627 51.6166 12.9792 51.7921L14.0064 53.3334H10.6667ZM21.1712 30.6006C20.7133 31.7429 19.4161 32.2978 18.2739 31.8399C17.7681 31.6373 17.3543 31.2563 17.1104 30.7691L14.8267 26.1899C14.57 25.6597 13.932 25.4379 13.4017 25.6947C13.0297 25.8749 12.7953 26.2535 12.8 26.6667V36.2667H6.4V26.6667C6.4 26.0777 5.9224 25.6001 5.33333 25.6001C4.74427 25.6001 4.26667 26.0777 4.26667 26.6667V34.1334H2.13333V26.6667C2.13333 24.8994 3.566 23.4667 5.33333 23.4667H8.53333V34.1334H10.6667V23.4667H13.8667C15.3381 23.4697 16.6517 24.3898 17.1573 25.7718L18.1973 28.6315C18.3983 29.1853 19.0101 29.4713 19.5639 29.2703C19.8609 29.1626 20.0948 28.9286 20.2027 28.6315L20.5291 27.7334H22.3179L21.1712 30.6006ZM23.1712 25.6001H21.3045L22.08 23.4667H24.0245L23.1712 25.6001Z" fill="white"/>
<path d="M62.9333 6.4C63.5224 6.4 64 5.9224 64 5.33333V1.06667C64 0.4776 63.5224 0 62.9333 0H18.1333C17.5443 0 17.0667 0.4776 17.0667 1.06667V5.33333C17.0667 5.9224 17.5443 6.4 18.1333 6.4H19.2V19.2H21.3333V6.4H59.7333V29.8667H25.6V32H39.4667V36.7147L32.5333 40.6741L33.5915 42.5259L39.4667 39.1712V42.6667H41.6V39.1712L47.4667 42.5259L48.5248 40.6741L41.6 36.7147V32H64V29.8667H61.8667V6.4H62.9333ZM19.2 4.26667V2.13333H61.8667V4.26667H19.2Z" fill="white"/>
<path d="M52.5259 11.7654L48.2592 10.6987L47.7408 12.7681L49.7387 13.2673L41.6427 18.9345L36.9333 15.167C36.5604 14.8691 36.0351 14.8551 35.6469 15.1329L28.1803 20.4662L29.4197 22.2006L36.2304 17.3366L40.9333 21.0998C41.3035 21.3965 41.8251 21.413 42.2133 21.1403L51.2 14.8491V17.0667H53.3333V12.8001C53.3333 12.3109 53.0004 11.8843 52.5259 11.7654Z" fill="white"/>
</g>
<defs>
<clipPath id="clip0">
<rect width="64" height="64" fill="white"/>
</clipPath>
</defs>
</svg>
